  0
SECTION
  2
HEADER
  9
$ACADVER
  1
AC1014
  9
$HANDSEED
  5
FFFF
  9
$MEASUREMENT
 70
     1
  0
ENDSEC
  0
SECTION
  2
TABLES
  0
TABLE
  2
VPORT
  5
8
330
0
100
AcDbSymbolTable
 70
     4
  0
VPORT
  5
2E
330
8
100
AcDbSymbolTableRecord
100
AcDbViewportTableRecord
  2
*ACTIVE
 70
     0
 10
0.0
 20
0.0
 11
1.0
 21
1.0
 12
210.0
 22
148.5
 13
0.0
 23
0.0
 14
10.0
 24
10.0
 15
10.0
 25
10.0
 16
0.0
 26
0.0
 36
1.0
 17
0.0
 27
0.0
 37
0.0
 40
341.0
 41
1.24
 42
50.0
 43
0.0
 44
0.0
 50
0.0
 51
0.0
 71
     0
 72
   100
 73
     1
 74
     3
 75
     0
 76
     0
 77
     0
 78
     0
  0
ENDTAB
  0
TABLE
  2
LTYPE
  5
5
330
0
100
AcDbSymbolTable
 70
     1
  0
LTYPE
  5
14
330
5
100
AcDbSymbolTableRecord
100
AcDbLinetypeTableRecord
  2
BYBLOCK
 70
     0
  3

 72
    65
 73
     0
 40
0.0
  0
LTYPE
  5
15
330
5
100
AcDbSymbolTableRecord
100
AcDbLinetypeTableRecord
  2
BYLAYER
 70
     0
  3

 72
    65
 73
     0
 40
0.0
  0
LTYPE
  5
16
330
5
100
AcDbSymbolTableRecord
100
AcDbLinetypeTableRecord
  2
CONTINUOUS
 70
     0
  3
Solid line
 72
    65
 73
     0
 40
0.0
  0
ENDTAB
  0
TABLE
  2
LAYER
  5
2
100
AcDbSymbolTable
 70
2
  0
LAYER
  5
50
100
AcDbSymbolTableRecord
100
AcDbLayerTableRecord
  2
0
 70
0
  6
CONTINUOUS
  0
LAYER
  5
51
100
AcDbSymbolTableRecord
100
AcDbLayerTableRecord
  2
Layer_1
 70
0
  6
CONTINUOUS
  0
ENDTAB
  0
TABLE
  2
STYLE
  5
3
330
0
100
AcDbSymbolTable
 70
     1
  0
STYLE
  5
11
330
3
100
AcDbSymbolTableRecord
100
AcDbTextStyleTableRecord
  2
STANDARD
 70
     0
 40
0.0
 41
1.0
 50
0.0
 71
     0
 42
2.5
  3
txt
  4

  0
ENDTAB
  0
TABLE
  2
VIEW
  5
6
330
0
100
AcDbSymbolTable
 70
     0
  0
ENDTAB
  0
TABLE
  2
UCS
  5
7
330
0
100
AcDbSymbolTable
 70
     0
  0
ENDTAB
  0
TABLE
  2
APPID
  5
9
330
0
100
AcDbSymbolTable
 70
     2
  0
APPID
  5
12
330
9
100
AcDbSymbolTableRecord
100
AcDbRegAppTableRecord
  2
ACAD
 70
     0
  0
ENDTAB
  0
TABLE
  2
DIMSTYLE
  5
A
330
0
100
AcDbSymbolTable
 70
     1
  0
DIMSTYLE
105
27
330
A
100
AcDbSymbolTableRecord
100
AcDbDimStyleTableRecord
  2
ISO-25
 70
     0
  3

  4

  5

  6

  7

 40
1.0
 41
2.5
 42
0.625
 43
3.75
 44
1.25
 45
0.0
 46
0.0
 47
0.0
 48
0.0
140
2.5
141
2.5
142
0.0
143
0.03937007874016
144
1.0
145
0.0
146
1.0
147
0.625
 71
     0
 72
     0
 73
     0
 74
     0
 75
     0
 76
     0
 77
     1
 78
     8
170
     0
171
     3
172
     1
173
     0
174
     0
175
     0
176
     0
177
     0
178
     0
270
     2
271
     2
272
     2
273
     2
274
     3
340
11
275
     0
280
     0
281
     0
282
     0
283
     0
284
     8
285
     0
286
     0
287
     3
288
     0
  0
ENDTAB
  0
TABLE
  2
BLOCK_RECORD
  5
1
330
0
100
AcDbSymbolTable
 70
     1
  0
BLOCK_RECORD
  5
1F
330
1
100
AcDbSymbolTableRecord
100
AcDbBlockTableRecord
  2
*MODEL_SPACE
  0
BLOCK_RECORD
  5
1B
330
1
100
AcDbSymbolTableRecord
100
AcDbBlockTableRecord
  2
*PAPER_SPACE
  0
ENDTAB
  0
ENDSEC
  0
SECTION
  2
BLOCKS
  0
BLOCK
  5
20
330
1F
100
AcDbEntity
  8
0
100
AcDbBlockBegin
  2
*MODEL_SPACE
 70
     0
 10
0.0
 20
0.0
 30
0.0
  3
*MODEL_SPACE
  1

  0
ENDBLK
  5
21
330
1F
100
AcDbEntity
  8
0
100
AcDbBlockEnd
  0
BLOCK
  5
1C
330
1B
100
AcDbEntity
 67
     1
  8
0
100
AcDbBlockBegin
  2
*PAPER_SPACE
  1

  0
ENDBLK
  5
1D
330
1B
100
AcDbEntity
 67
     1
  8
0
100
AcDbBlockEnd
  0
ENDSEC
  0
SECTION
  2
ENTITIES
  0
LWPOLYLINE
  5
100
100
AcDbEntity
  8
Layer_1
 62
7
100
AcDbPolyline
 90
225
 70
1
 10
130.657518
 20
151.679172
 30
0.0
 10
130.080901
 20
151.531663
 30
0.0
 10
129.518241
 20
151.353665
 30
0.0
 10
128.967794
 20
151.148958
 30
0.0
 10
128.427827
 20
150.921323
 30
0.0
 10
127.896592
 20
150.674543
 30
0.0
 10
127.372350
 20
150.412392
 30
0.0
 10
126.853360
 20
150.138653
 30
0.0
 10
126.337881
 20
149.857106
 30
0.0
 10
125.824175
 20
149.571531
 30
0.0
 10
125.310496
 20
149.285710
 30
0.0
 10
124.795108
 20
149.003417
 30
0.0
 10
124.276265
 20
148.728440
 30
0.0
 10
123.752232
 20
148.464551
 30
0.0
 10
123.221265
 20
148.215535
 30
0.0
 10
122.681622
 20
147.985171
 30
0.0
 10
122.131562
 20
147.777238
 30
0.0
 10
120.620525
 20
147.188204
 30
0.0
 10
119.082560
 20
146.698794
 30
0.0
 10
117.522433
 20
146.307882
 30
0.0
 10
115.944893
 20
146.014334
 30
0.0
 10
114.354700
 20
145.817021
 30
0.0
 10
112.756609
 20
145.714814
 30
0.0
 10
111.155378
 20
145.706574
 30
0.0
 10
109.555765
 20
145.791187
 30
0.0
 10
107.962528
 20
145.967513
 30
0.0
 10
106.380418
 20
146.234425
 30
0.0
 10
104.814198
 20
146.590790
 30
0.0
 10
103.268622
 20
147.035479
 30
0.0
 10
101.748446
 20
147.567361
 30
0.0
 10
100.258428
 20
148.185309
 30
0.0
 10
98.803325
 20
148.888189
 30
0.0
 10
97.387893
 20
149.674872
 30
0.0
 10
97.007621
 20
149.851786
 30
0.0
 10
96.620513
 20
150.049601
 30
0.0
 10
96.227183
 20
150.261448
 30
0.0
 10
95.828231
 20
150.480470
 30
0.0
 10
95.424269
 20
150.699799
 30
0.0
 10
95.015908
 20
150.912575
 30
0.0
 10
94.603751
 20
151.111931
 30
0.0
 10
94.188407
 20
151.291003
 30
0.0
 10
93.770487
 20
151.442935
 30
0.0
 10
93.350596
 20
151.560853
 30
0.0
 10
92.929343
 20
151.637903
 30
0.0
 10
92.507339
 20
151.667214
 30
0.0
 10
92.085188
 20
151.641927
 30
0.0
 10
91.663500
 20
151.555178
 30
0.0
 10
91.242885
 20
151.400102
 30
0.0
 10
90.823946
 20
151.169840
 30
0.0
 10
90.396774
 20
150.863775
 30
0.0
 10
90.032944
 20
150.520486
 30
0.0
 10
89.727196
 20
150.143705
 30
0.0
 10
89.474277
 20
149.737173
 30
0.0
 10
89.268924
 20
149.304625
 30
0.0
 10
89.105878
 20
148.849795
 30
0.0
 10
88.979883
 20
148.376424
 30
0.0
 10
88.885680
 20
147.888247
 30
0.0
 10
88.818006
 20
147.389002
 30
0.0
 10
88.771609
 20
146.882421
 30
0.0
 10
88.741227
 20
146.372248
 30
0.0
 10
88.721613
 20
145.862213
 30
0.0
 10
88.707474
 20
145.356056
 30
0.0
 10
88.693588
 20
144.857516
 30
0.0
 10
88.674679
 20
144.370325
 30
0.0
 10
88.645495
 20
143.898221
 30
0.0
 10
88.658138
 20
142.867633
 30
0.0
 10
88.682099
 20
141.832783
 30
0.0
 10
88.711789
 20
140.794882
 30
0.0
 10
88.741611
 20
139.755136
 30
0.0
 10
88.765967
 20
138.714752
 30
0.0
 10
88.779260
 20
137.674933
 30
0.0
 10
88.775901
 20
136.636891
 30
0.0
 10
88.750304
 20
135.601827
 30
0.0
 10
88.696848
 20
134.570951
 30
0.0
 10
88.609949
 20
133.545468
 30
0.0
 10
88.484016
 20
132.526587
 30
0.0
 10
88.313446
 20
131.515512
 30
0.0
 10
88.092647
 20
130.513451
 30
0.0
 10
87.816027
 20
129.521609
 30
0.0
 10
87.477984
 20
128.541194
 30
0.0
 10
87.072927
 20
127.573415
 30
0.0
 10
86.669259
 20
126.426873
 30
0.0
 10
86.282990
 20
125.269065
 30
0.0
 10
85.917673
 20
124.100975
 30
0.0
 10
85.576864
 20
122.923595
 30
0.0
 10
85.264114
 20
121.737914
 30
0.0
 10
84.982981
 20
120.544919
 30
0.0
 10
84.737019
 20
119.345598
 30
0.0
 10
84.529780
 20
118.140941
 30
0.0
 10
84.364819
 20
116.931935
 30
0.0
 10
84.245690
 20
115.719571
 30
0.0
 10
84.175947
 20
114.504833
 30
0.0
 10
84.159155
 20
113.288714
 30
0.0
 10
84.198849
 20
112.072201
 30
0.0
 10
84.298592
 20
110.856281
 30
0.0
 10
84.461937
 20
109.641946
 30
0.0
 10
84.692442
 20
108.430180
 30
0.0
 10
84.929495
 20
106.989842
 30
0.0
 10
85.182202
 20
105.552080
 30
0.0
 10
85.449478
 20
104.116803
 30
0.0
 10
85.730235
 20
102.683912
 30
0.0
 10
86.023385
 20
101.253314
 30
0.0
 10
86.327841
 20
99.824911
 30
0.0
 10
86.642516
 20
98.398611
 30
0.0
 10
86.966323
 20
96.974320
 30
0.0
 10
87.298180
 20
95.551940
 30
0.0
 10
87.636993
 20
94.131374
 30
0.0
 10
87.981680
 20
92.712533
 30
0.0
 10
88.331150
 20
91.295317
 30
0.0
 10
88.684320
 20
89.879631
 30
0.0
 10
89.040101
 20
88.465382
 30
0.0
 10
89.397405
 20
87.052476
 30
0.0
 10
89.755147
 20
85.640814
 30
0.0
 10
89.821120
 20
85.427316
 30
0.0
 10
89.927707
 20
85.243649
 30
0.0
 10
90.071933
 20
85.087684
 30
0.0
 10
90.250831
 20
84.957306
 30
0.0
 10
90.461428
 20
84.850395
 30
0.0
 10
90.700753
 20
84.764828
 30
0.0
 10
90.965836
 20
84.698483
 30
0.0
 10
91.253705
 20
84.649241
 30
0.0
 10
91.561392
 20
84.614982
 30
0.0
 10
91.885920
 20
84.593589
 30
0.0
 10
92.224324
 20
84.582921
 30
0.0
 10
92.573627
 20
84.580946
 30
0.0
 10
92.930864
 20
84.585405
 30
0.0
 10
93.293063
 20
84.594238
 30
0.0
 10
93.657248
 20
84.605330
 30
0.0
 10
94.020451
 20
84.616562
 30
0.0
 10
96.427115
 20
84.626581
 30
0.0
 10
98.869125
 20
84.630899
 30
0.0
 10
101.341403
 20
84.630665
 30
0.0
 10
103.838866
 20
84.626996
 30
0.0
 10
106.356429
 20
84.621041
 30
0.0
 10
108.889013
 20
84.613929
 30
0.0
 10
111.431533
 20
84.606761
 30
0.0
 10
113.978910
 20
84.600693
 30
0.0
 10
116.526064
 20
84.596855
 30
0.0
 10
119.067907
 20
84.596290
 30
0.0
 10
121.599362
 20
84.600298
 30
0.0
 10
124.115347
 20
84.609950
 30
0.0
 10
126.610776
 20
84.626347
 30
0.0
 10
129.080570
 20
84.650618
 30
0.0
 10
131.519648
 20
84.683915
 30
0.0
 10
133.922925
 20
84.727360
 30
0.0
 10
134.245796
 20
84.917146
 30
0.0
 10
134.514220
 20
85.140107
 30
0.0
 10
134.733964
 20
85.392665
 30
0.0
 10
134.910799
 20
85.671252
 30
0.0
 10
135.050493
 20
85.972296
 30
0.0
 10
135.158821
 20
86.292228
 30
0.0
 10
135.241549
 20
86.627472
 30
0.0
 10
135.304448
 20
86.974461
 30
0.0
 10
135.353290
 20
87.329618
 30
0.0
 10
135.393842
 20
87.689378
 30
0.0
 10
135.431874
 20
88.050165
 30
0.0
 10
135.473158
 20
88.408410
 30
0.0
 10
135.523464
 20
88.760541
 30
0.0
 10
135.588561
 20
89.102987
 30
0.0
 10
135.674219
 20
89.432174
 30
0.0
 10
135.786207
 20
89.744532
 30
0.0
 10
136.084395
 20
91.391321
 30
0.0
 10
136.391636
 20
93.039614
 30
0.0
 10
136.703517
 20
94.689522
 30
0.0
 10
137.015621
 20
96.341166
 30
0.0
 10
137.323534
 20
97.994655
 30
0.0
 10
137.622842
 20
99.650105
 30
0.0
 10
137.909122
 20
101.307636
 30
0.0
 10
138.177967
 20
102.967357
 30
0.0
 10
138.424957
 20
104.629389
 30
0.0
 10
138.645674
 20
106.293842
 30
0.0
 10
138.835709
 20
107.960833
 30
0.0
 10
138.990640
 20
109.630479
 30
0.0
 10
139.106058
 20
111.302894
 30
0.0
 10
139.177539
 20
112.978194
 30
0.0
 10
139.200681
 20
114.656490
 30
0.0
 10
139.171053
 20
116.337903
 30
0.0
 10
139.043814
 20
117.561279
 30
0.0
 10
138.850999
 20
118.770475
 30
0.0
 10
138.602206
 20
119.967515
 30
0.0
 10
138.307024
 20
121.154423
 30
0.0
 10
137.975052
 20
122.333225
 30
0.0
 10
137.615882
 20
123.505941
 30
0.0
 10
137.239107
 20
124.674597
 30
0.0
 10
136.854319
 20
125.841219
 30
0.0
 10
136.471118
 20
127.007830
 30
0.0
 10
136.099096
 20
128.176453
 30
0.0
 10
135.747845
 20
129.349112
 30
0.0
 10
135.426958
 20
130.527833
 30
0.0
 10
135.146034
 20
131.714636
 30
0.0
 10
134.914665
 20
132.911552
 30
0.0
 10
134.742442
 20
134.120598
 30
0.0
 10
134.638963
 20
135.343803
 30
0.0
 10
134.619433
 20
136.247458
 30
0.0
 10
134.621973
 20
137.155410
 30
0.0
 10
134.641192
 20
138.066815
 30
0.0
 10
134.671576
 20
138.980843
 30
0.0
 10
134.707658
 20
139.896654
 30
0.0
 10
134.743972
 20
140.813419
 30
0.0
 10
134.775047
 20
141.730297
 30
0.0
 10
134.795424
 20
142.646458
 30
0.0
 10
134.799629
 20
143.561061
 30
0.0
 10
134.782187
 20
144.473277
 30
0.0
 10
134.737630
 20
145.382264
 30
0.0
 10
134.660499
 20
146.287192
 30
0.0
 10
134.545318
 20
147.187221
 30
0.0
 10
134.386628
 20
148.081522
 30
0.0
 10
134.178957
 20
148.969254
 30
0.0
 10
133.916835
 20
149.849585
 30
0.0
 10
133.791483
 20
150.060870
 30
0.0
 10
133.650420
 20
150.261019
 30
0.0
 10
133.494777
 20
150.449651
 30
0.0
 10
133.325681
 20
150.626376
 30
0.0
 10
133.144257
 20
150.790815
 30
0.0
 10
132.951638
 20
150.942586
 30
0.0
 10
132.748943
 20
151.081301
 30
0.0
 10
132.537307
 20
151.206580
 30
0.0
 10
132.317851
 20
151.318038
 30
0.0
 10
132.091709
 20
151.415291
 30
0.0
 10
131.860002
 20
151.497960
 30
0.0
 10
131.623861
 20
151.565656
 30
0.0
 10
131.384415
 20
151.617997
 30
0.0
 10
131.142788
 20
151.654604
 30
0.0
 10
130.900108
 20
151.675094
 30
0.0
 10
130.657518
 20
151.679172
 30
0.0
  0
ENDSEC
  0
SECTION
  2
OBJECTS
  0
DICTIONARY
  5
C
330
0
100
AcDbDictionary
  3
ACAD_GROUP
350
D
  3
ACAD_MLINESTYLE
350
17
  0
DICTIONARY
  5
D
330
C
100
AcDbDictionary
  0
DICTIONARY
  5
1A
330
C
100
AcDbDictionary
  0
DICTIONARY
  5
17
330
C
100
AcDbDictionary
  3
STANDARD
350
18
  0
DICTIONARY
  5
19
330
C
100
AcDbDictionary
  0
ENDSEC
  0
EOF
