M48
;DRILL file {KiCad 4.0.4-snap1-stable} date Tue Apr 11 15:27:11 2017
;FORMAT={-:-/ absolute / metric / decimal}
FMAT,2
METRIC,TZ
T1C1.000
%
G90
G05
M71
T1
X65.76Y-108.99
X66.42Y-106.53
X75.91Y-96.53
X75.92Y-100.51
X83.71Y-127.07
X83.72Y-84.93
X87.53Y-136.56
X88.72Y-84.93
X88.72Y-127.09
X90.07Y-136.56
X93.71Y-127.07
X93.72Y-84.94
X97.43Y-130.14
X97.44Y-90.57
X98.78Y-88.07
X99.09Y-82.37
X100.39Y-128.47
X107.35Y-78.76
X110.66Y-107.03
X111.33Y-109.48
T0
M30
