  0
SECTION
  2
HEADER
  9
$ACADVER
  1
AC1014
  9
$HANDSEED
  5
FFFF
  9
$MEASUREMENT
 70
     1
  0
ENDSEC
  0
SECTION
  2
TABLES
  0
TABLE
  2
VPORT
  5
8
330
0
100
AcDbSymbolTable
 70
     4
  0
VPORT
  5
2E
330
8
100
AcDbSymbolTableRecord
100
AcDbViewportTableRecord
  2
*ACTIVE
 70
     0
 10
0.0
 20
0.0
 11
1.0
 21
1.0
 12
210.0
 22
148.5
 13
0.0
 23
0.0
 14
10.0
 24
10.0
 15
10.0
 25
10.0
 16
0.0
 26
0.0
 36
1.0
 17
0.0
 27
0.0
 37
0.0
 40
341.0
 41
1.24
 42
50.0
 43
0.0
 44
0.0
 50
0.0
 51
0.0
 71
     0
 72
   100
 73
     1
 74
     3
 75
     0
 76
     0
 77
     0
 78
     0
  0
ENDTAB
  0
TABLE
  2
LTYPE
  5
5
330
0
100
AcDbSymbolTable
 70
     1
  0
LTYPE
  5
14
330
5
100
AcDbSymbolTableRecord
100
AcDbLinetypeTableRecord
  2
BYBLOCK
 70
     0
  3

 72
    65
 73
     0
 40
0.0
  0
LTYPE
  5
15
330
5
100
AcDbSymbolTableRecord
100
AcDbLinetypeTableRecord
  2
BYLAYER
 70
     0
  3

 72
    65
 73
     0
 40
0.0
  0
LTYPE
  5
16
330
5
100
AcDbSymbolTableRecord
100
AcDbLinetypeTableRecord
  2
CONTINUOUS
 70
     0
  3
Solid line
 72
    65
 73
     0
 40
0.0
  0
ENDTAB
  0
TABLE
  2
LAYER
  5
2
100
AcDbSymbolTable
 70
2
  0
LAYER
  5
50
100
AcDbSymbolTableRecord
100
AcDbLayerTableRecord
  2
0
 70
0
  6
CONTINUOUS
  0
LAYER
  5
51
100
AcDbSymbolTableRecord
100
AcDbLayerTableRecord
  2
Layer_1
 70
0
  6
CONTINUOUS
  0
ENDTAB
  0
TABLE
  2
STYLE
  5
3
330
0
100
AcDbSymbolTable
 70
     1
  0
STYLE
  5
11
330
3
100
AcDbSymbolTableRecord
100
AcDbTextStyleTableRecord
  2
STANDARD
 70
     0
 40
0.0
 41
1.0
 50
0.0
 71
     0
 42
2.5
  3
txt
  4

  0
ENDTAB
  0
TABLE
  2
VIEW
  5
6
330
0
100
AcDbSymbolTable
 70
     0
  0
ENDTAB
  0
TABLE
  2
UCS
  5
7
330
0
100
AcDbSymbolTable
 70
     0
  0
ENDTAB
  0
TABLE
  2
APPID
  5
9
330
0
100
AcDbSymbolTable
 70
     2
  0
APPID
  5
12
330
9
100
AcDbSymbolTableRecord
100
AcDbRegAppTableRecord
  2
ACAD
 70
     0
  0
ENDTAB
  0
TABLE
  2
DIMSTYLE
  5
A
330
0
100
AcDbSymbolTable
 70
     1
  0
DIMSTYLE
105
27
330
A
100
AcDbSymbolTableRecord
100
AcDbDimStyleTableRecord
  2
ISO-25
 70
     0
  3

  4

  5

  6

  7

 40
1.0
 41
2.5
 42
0.625
 43
3.75
 44
1.25
 45
0.0
 46
0.0
 47
0.0
 48
0.0
140
2.5
141
2.5
142
0.0
143
0.03937007874016
144
1.0
145
0.0
146
1.0
147
0.625
 71
     0
 72
     0
 73
     0
 74
     0
 75
     0
 76
     0
 77
     1
 78
     8
170
     0
171
     3
172
     1
173
     0
174
     0
175
     0
176
     0
177
     0
178
     0
270
     2
271
     2
272
     2
273
     2
274
     3
340
11
275
     0
280
     0
281
     0
282
     0
283
     0
284
     8
285
     0
286
     0
287
     3
288
     0
  0
ENDTAB
  0
TABLE
  2
BLOCK_RECORD
  5
1
330
0
100
AcDbSymbolTable
 70
     1
  0
BLOCK_RECORD
  5
1F
330
1
100
AcDbSymbolTableRecord
100
AcDbBlockTableRecord
  2
*MODEL_SPACE
  0
BLOCK_RECORD
  5
1B
330
1
100
AcDbSymbolTableRecord
100
AcDbBlockTableRecord
  2
*PAPER_SPACE
  0
ENDTAB
  0
ENDSEC
  0
SECTION
  2
BLOCKS
  0
BLOCK
  5
20
330
1F
100
AcDbEntity
  8
0
100
AcDbBlockBegin
  2
*MODEL_SPACE
 70
     0
 10
0.0
 20
0.0
 30
0.0
  3
*MODEL_SPACE
  1

  0
ENDBLK
  5
21
330
1F
100
AcDbEntity
  8
0
100
AcDbBlockEnd
  0
BLOCK
  5
1C
330
1B
100
AcDbEntity
 67
     1
  8
0
100
AcDbBlockBegin
  2
*PAPER_SPACE
  1

  0
ENDBLK
  5
1D
330
1B
100
AcDbEntity
 67
     1
  8
0
100
AcDbBlockEnd
  0
ENDSEC
  0
SECTION
  2
ENTITIES
  0
LWPOLYLINE
  5
100
100
AcDbEntity
  8
Layer_1
 62
1
100
AcDbPolyline
 90
305
 70
1
 10
48.589325
 20
0.245218
 30
0.0
 10
48.673899
 20
0.449494
 30
0.0
 10
48.797190
 20
0.892583
 30
0.0
 10
48.954617
 20
1.550076
 30
0.0
 10
49.141586
 20
2.397564
 30
0.0
 10
49.353518
 20
3.410643
 30
0.0
 10
49.585824
 20
4.564900
 30
0.0
 10
49.833914
 20
5.835931
 30
0.0
 10
50.093203
 20
7.199323
 30
0.0
 10
50.359104
 20
8.630673
 30
0.0
 10
50.627029
 20
10.105572
 30
0.0
 10
50.892397
 20
11.599608
 30
0.0
 10
51.150613
 20
13.088376
 30
0.0
 10
51.397098
 20
14.547467
 30
0.0
 10
51.627258
 20
15.952474
 30
0.0
 10
51.836512
 20
17.278989
 30
0.0
 10
52.020270
 20
18.502600
 30
0.0
 10
52.281870
 20
20.356382
 30
0.0
 10
52.501907
 20
22.057663
 30
0.0
 10
52.679050
 20
23.625413
 30
0.0
 10
52.811957
 20
25.078595
 30
0.0
 10
52.899290
 20
26.436183
 30
0.0
 10
52.939710
 20
27.717147
 30
0.0
 10
52.931864
 20
28.940451
 30
0.0
 10
52.874443
 20
30.125070
 30
0.0
 10
52.766095
 20
31.289968
 30
0.0
 10
52.605483
 20
32.454115
 30
0.0
 10
52.391265
 20
33.636482
 30
0.0
 10
52.122104
 20
34.856037
 30
0.0
 10
51.796662
 20
36.131749
 30
0.0
 10
51.413602
 20
37.482586
 30
0.0
 10
50.971585
 20
38.927519
 30
0.0
 10
50.469272
 20
40.485515
 30
0.0
 10
50.357430
 20
40.826719
 30
0.0
 10
50.244434
 20
41.173435
 30
0.0
 10
50.131051
 20
41.523218
 30
0.0
 10
50.018053
 20
41.873640
 30
0.0
 10
49.906199
 20
42.222255
 30
0.0
 10
49.796268
 20
42.566628
 30
0.0
 10
49.689021
 20
42.904318
 30
0.0
 10
49.585225
 20
43.232895
 30
0.0
 10
49.485654
 20
43.549913
 30
0.0
 10
49.391070
 20
43.852937
 30
0.0
 10
49.302247
 20
44.139531
 30
0.0
 10
49.219948
 20
44.407253
 30
0.0
 10
49.144942
 20
44.653667
 30
0.0
 10
49.077996
 20
44.876337
 30
0.0
 10
49.019881
 20
45.072823
 30
0.0
 10
48.971364
 20
45.240686
 30
0.0
 10
48.945032
 20
45.333255
 30
0.0
 10
48.918701
 20
45.425827
 30
0.0
 10
48.892370
 20
45.518396
 30
0.0
 10
48.866038
 20
45.610965
 30
0.0
 10
48.839707
 20
45.703536
 30
0.0
 10
48.813376
 20
45.796105
 30
0.0
 10
48.787044
 20
45.888677
 30
0.0
 10
48.760713
 20
45.981246
 30
0.0
 10
48.734382
 20
46.073815
 30
0.0
 10
48.708050
 20
46.166386
 30
0.0
 10
48.681719
 20
46.258955
 30
0.0
 10
48.655388
 20
46.351527
 30
0.0
 10
48.629056
 20
46.444096
 30
0.0
 10
48.602725
 20
46.536665
 30
0.0
 10
48.576394
 20
46.629236
 30
0.0
 10
48.550062
 20
46.721805
 30
0.0
 10
48.543656
 20
47.194398
 30
0.0
 10
48.537249
 20
47.666993
 30
0.0
 10
48.530843
 20
48.139588
 30
0.0
 10
48.524437
 20
48.612181
 30
0.0
 10
48.518030
 20
49.084773
 30
0.0
 10
48.511624
 20
49.557368
 30
0.0
 10
48.505217
 20
50.029961
 30
0.0
 10
48.498811
 20
50.502556
 30
0.0
 10
48.492404
 20
50.975151
 30
0.0
 10
48.485998
 20
51.447743
 30
0.0
 10
48.479591
 20
51.920336
 30
0.0
 10
48.473185
 20
52.392931
 30
0.0
 10
48.466779
 20
52.865526
 30
0.0
 10
48.460344
 20
53.338119
 30
0.0
 10
48.453937
 20
53.810714
 30
0.0
 10
48.447531
 20
54.283306
 30
0.0
 10
48.426280
 20
55.790116
 30
0.0
 10
48.405000
 20
57.120633
 30
0.0
 10
48.382197
 20
58.287317
 30
0.0
 10
48.356458
 20
59.302617
 30
0.0
 10
48.326317
 20
60.178999
 30
0.0
 10
48.290313
 20
60.928914
 30
0.0
 10
48.246998
 20
61.564820
 30
0.0
 10
48.194917
 20
62.099177
 30
0.0
 10
48.132611
 20
62.544436
 30
0.0
 10
48.058629
 20
62.913061
 30
0.0
 10
47.971512
 20
63.217505
 30
0.0
 10
47.869811
 20
63.470224
 30
0.0
 10
47.752071
 20
63.683677
 30
0.0
 10
47.616832
 20
63.870322
 30
0.0
 10
47.462643
 20
64.042613
 30
0.0
 10
47.288052
 20
64.213007
 30
0.0
 10
47.166352
 20
64.320399
 30
0.0
 10
47.038728
 20
64.420398
 30
0.0
 10
46.905997
 20
64.512758
 30
0.0
 10
46.768972
 20
64.597219
 30
0.0
 10
46.628468
 20
64.673526
 30
0.0
 10
46.485305
 20
64.741426
 30
0.0
 10
46.340293
 20
64.800662
 30
0.0
 10
46.194249
 20
64.850979
 30
0.0
 10
46.047990
 20
64.892121
 30
0.0
 10
45.902330
 20
64.923835
 30
0.0
 10
45.758083
 20
64.945876
 30
0.0
 10
45.616066
 20
64.957955
 30
0.0
 10
45.477094
 20
64.959931
 30
0.0
 10
45.341983
 20
64.951380
 30
0.0
 10
45.211546
 20
64.932132
 30
0.0
 10
45.086600
 20
64.901917
 30
0.0
 10
45.023653
 20
64.880073
 30
0.0
 10
44.930729
 20
64.842874
 30
0.0
 10
44.809664
 20
64.791207
 30
0.0
 10
44.662290
 20
64.725943
 30
0.0
 10
44.490442
 20
64.647957
 30
0.0
 10
44.295952
 20
64.558117
 30
0.0
 10
44.080656
 20
64.457299
 30
0.0
 10
43.846389
 20
64.346377
 30
0.0
 10
43.594982
 20
64.226218
 30
0.0
 10
43.328274
 20
64.097700
 30
0.0
 10
43.048092
 20
63.961694
 30
0.0
 10
42.756277
 20
63.819073
 30
0.0
 10
42.454658
 20
63.670709
 30
0.0
 10
42.145071
 20
63.517473
 30
0.0
 10
41.829352
 20
63.360242
 30
0.0
 10
41.509332
 20
63.199883
 30
0.0
 10
40.303213
 20
62.601439
 30
0.0
 10
39.178896
 20
62.061246
 30
0.0
 10
38.126447
 20
61.576589
 30
0.0
 10
37.135929
 20
61.144764
 30
0.0
 10
36.197410
 20
60.763061
 30
0.0
 10
35.300954
 20
60.428769
 30
0.0
 10
34.436629
 20
60.139183
 30
0.0
 10
33.594494
 20
59.891590
 30
0.0
 10
32.764620
 20
59.683284
 30
0.0
 10
31.937074
 20
59.511555
 30
0.0
 10
31.101916
 20
59.373698
 30
0.0
 10
30.249216
 20
59.266998
 30
0.0
 10
29.369035
 20
59.188749
 30
0.0
 10
28.451443
 20
59.136242
 30
0.0
 10
27.486506
 20
59.106769
 30
0.0
 10
26.464283
 20
59.097625
 30
0.0
 10
25.448686
 20
59.106430
 30
0.0
 10
24.493387
 20
59.134455
 30
0.0
 10
23.588083
 20
59.184493
 30
0.0
 10
22.722484
 20
59.259350
 30
0.0
 10
21.886291
 20
59.361822
 30
0.0
 10
21.069207
 20
59.494701
 30
0.0
 10
20.260937
 20
59.660785
 30
0.0
 10
19.451182
 20
59.862874
 30
0.0
 10
18.629647
 20
60.103756
 30
0.0
 10
17.786040
 20
60.386232
 30
0.0
 10
16.910058
 20
60.713099
 30
0.0
 10
15.991408
 20
61.087151
 30
0.0
 10
15.019793
 20
61.511181
 30
0.0
 10
13.984918
 20
61.987990
 30
0.0
 10
12.876485
 20
62.520371
 30
0.0
 10
11.684198
 20
63.111121
 30
0.0
 10
11.328011
 20
63.289300
 30
0.0
 10
10.977866
 20
63.463470
 30
0.0
 10
10.635742
 20
63.632691
 30
0.0
 10
10.303623
 20
63.796018
 30
0.0
 10
9.983487
 20
63.952511
 30
0.0
 10
9.677318
 20
64.101216
 30
0.0
 10
9.387095
 20
64.241199
 30
0.0
 10
9.114801
 20
64.371512
 30
0.0
 10
8.862418
 20
64.491208
 30
0.0
 10
8.631928
 20
64.599347
 30
0.0
 10
8.425310
 20
64.694984
 30
0.0
 10
8.244544
 20
64.777172
 30
0.0
 10
8.091616
 20
64.844971
 30
0.0
 10
7.968502
 20
64.897436
 30
0.0
 10
7.877186
 20
64.933619
 30
0.0
 10
7.819652
 20
64.952585
 30
0.0
 10
7.713229
 20
64.973074
 30
0.0
 10
7.597775
 20
64.983883
 30
0.0
 10
7.474565
 20
64.985294
 30
0.0
 10
7.344870
 20
64.977844
 30
0.0
 10
7.209965
 20
64.961842
 30
0.0
 10
7.071126
 20
64.937655
 30
0.0
 10
6.929628
 20
64.905691
 30
0.0
 10
6.786745
 20
64.866324
 30
0.0
 10
6.643748
 20
64.819932
 30
0.0
 10
6.501917
 20
64.766902
 30
0.0
 10
6.362522
 20
64.707613
 30
0.0
 10
6.226838
 20
64.642448
 30
0.0
 10
6.096141
 20
64.571791
 30
0.0
 10
5.971707
 20
64.496023
 30
0.0
 10
5.854804
 20
64.415524
 30
0.0
 10
5.746713
 20
64.330680
 30
0.0
 10
5.557195
 20
64.148946
 30
0.0
 10
5.386482
 20
63.934160
 30
0.0
 10
5.233760
 20
63.679125
 30
0.0
 10
5.098220
 20
63.376639
 30
0.0
 10
4.979046
 20
63.019504
 30
0.0
 10
4.875428
 20
62.600522
 30
0.0
 10
4.786551
 20
62.112492
 30
0.0
 10
4.711607
 20
61.548214
 30
0.0
 10
4.649780
 20
60.900492
 30
0.0
 10
4.600259
 20
60.162122
 30
0.0
 10
4.562229
 20
59.325909
 30
0.0
 10
4.534882
 20
58.384653
 30
0.0
 10
4.517413
 20
57.331148
 30
0.0
 10
4.509002
 20
56.158204
 30
0.0
 10
4.508822
 20
54.858616
 30
0.0
 10
4.516075
 20
53.425187
 30
0.0
 10
4.525614
 20
52.188557
 30
0.0
 10
4.533290
 20
51.112768
 30
0.0
 10
4.535830
 20
50.176564
 30
0.0
 10
4.530355
 20
49.358687
 30
0.0
 10
4.513620
 20
48.637888
 30
0.0
 10
4.482493
 20
47.992906
 30
0.0
 10
4.433838
 20
47.402489
 30
0.0
 10
4.364519
 20
46.845382
 30
0.0
 10
4.271402
 20
46.300326
 30
0.0
 10
4.151362
 20
45.746070
 30
0.0
 10
4.001259
 20
45.161356
 30
0.0
 10
3.817964
 20
44.524931
 30
0.0
 10
3.598347
 20
43.815537
 30
0.0
 10
3.339270
 20
43.011921
 30
0.0
 10
3.037603
 20
42.092825
 30
0.0
 10
2.690213
 20
41.036997
 30
0.0
 10
2.193959
 20
39.502267
 30
0.0
 10
1.753576
 20
38.086423
 30
0.0
 10
1.367386
 20
36.775538
 30
0.0
 10
1.033718
 20
35.555672
 30
0.0
 10
0.750897
 20
34.412900
 30
0.0
 10
0.517251
 20
33.333288
 30
0.0
 10
0.331106
 20
32.302905
 30
0.0
 10
0.190788
 20
31.307818
 30
0.0
 10
0.094626
 20
30.334095
 30
0.0
 10
0.040945
 20
29.367808
 30
0.0
 10
0.028075
 20
28.395022
 30
0.0
 10
0.054350
 20
27.401809
 30
0.0
 10
0.118073
 20
26.374232
 30
0.0
 10
0.217582
 20
25.298362
 30
0.0
 10
0.351206
 20
24.160267
 30
0.0
 10
0.517271
 20
22.946017
 30
0.0
 10
0.602147
 20
22.387685
 30
0.0
 10
0.703930
 20
21.769542
 30
0.0
 10
0.822365
 20
21.092796
 30
0.0
 10
0.957193
 20
20.358657
 30
0.0
 10
1.108168
 20
19.568333
 30
0.0
 10
1.275032
 20
18.723035
 30
0.0
 10
1.457528
 20
17.823971
 30
0.0
 10
1.655405
 20
16.872349
 30
0.0
 10
1.868410
 20
15.869382
 30
0.0
 10
2.096287
 20
14.816275
 30
0.0
 10
2.338781
 20
13.714240
 30
0.0
 10
2.595637
 20
12.564484
 30
0.0
 10
2.866607
 20
11.368217
 30
0.0
 10
3.151429
 20
10.126651
 30
0.0
 10
3.449853
 20
8.840990
 30
0.0
 10
3.761624
 20
7.512446
 30
0.0
 10
4.004714
 20
6.484390
 30
0.0
 10
4.225205
 20
5.557575
 30
0.0
 10
4.424522
 20
4.726800
 30
0.0
 10
4.604089
 20
3.986873
 30
0.0
 10
4.765328
 20
3.332591
 30
0.0
 10
4.909662
 20
2.758757
 30
0.0
 10
5.038513
 20
2.260178
 30
0.0
 10
5.153310
 20
1.831654
 30
0.0
 10
5.255472
 20
1.467988
 30
0.0
 10
5.346423
 20
1.163979
 30
0.0
 10
5.427588
 20
0.914435
 30
0.0
 10
5.500387
 20
0.714156
 30
0.0
 10
5.566249
 20
0.557943
 30
0.0
 10
5.626591
 20
0.440604
 30
0.0
 10
5.682841
 20
0.356933
 30
0.0
 10
5.736421
 20
0.301739
 30
0.0
 10
5.811221
 20
0.256061
 30
0.0
 10
5.933330
 20
0.215746
 30
0.0
 10
6.128873
 20
0.180457
 30
0.0
 10
6.423982
 20
0.149861
 30
0.0
 10
6.844781
 20
0.123643
 30
0.0
 10
7.417401
 20
0.101432
 30
0.0
 10
8.167968
 20
0.082918
 30
0.0
 10
9.122616
 20
0.067763
 30
0.0
 10
10.307464
 20
0.055655
 30
0.0
 10
11.748649
 20
0.046229
 30
0.0
 10
13.472293
 20
0.039174
 30
0.0
 10
15.504527
 20
0.034150
 30
0.0
 10
17.871477
 20
0.030820
 30
0.0
 10
20.599276
 20
0.028844
 30
0.0
 10
23.714044
 20
0.027998
 30
0.0
 10
27.241918
 20
0.027760
 30
0.0
 10
30.433597
 20
0.028043
 30
0.0
 10
33.298782
 20
0.029454
 30
0.0
 10
35.854363
 20
0.031994
 30
0.0
 10
38.117235
 20
0.035804
 30
0.0
 10
40.104291
 20
0.041081
 30
0.0
 10
41.832426
 20
0.047996
 30
0.0
 10
43.318532
 20
0.056716
 30
0.0
 10
44.579500
 20
0.067441
 30
0.0
 10
45.632226
 20
0.080310
 30
0.0
 10
46.493602
 20
0.095522
 30
0.0
 10
47.180523
 20
0.113217
 30
0.0
 10
47.709881
 20
0.133594
 30
0.0
 10
48.098569
 20
0.156821
 30
0.0
 10
48.363480
 20
0.183067
 30
0.0
 10
48.521510
 20
0.212512
 30
0.0
 10
48.589325
 20
0.245218
 30
0.0
  0
ENDSEC
  0
SECTION
  2
OBJECTS
  0
DICTIONARY
  5
C
330
0
100
AcDbDictionary
  3
ACAD_GROUP
350
D
  3
ACAD_MLINESTYLE
350
17
  0
DICTIONARY
  5
D
330
C
100
AcDbDictionary
  0
DICTIONARY
  5
1A
330
C
100
AcDbDictionary
  0
DICTIONARY
  5
17
330
C
100
AcDbDictionary
  3
STANDARD
350
18
  0
DICTIONARY
  5
19
330
C
100
AcDbDictionary
  0
ENDSEC
  0
EOF
