  0
SECTION
  2
HEADER
  9
$ACADVER
  1
AC1014
  9
$HANDSEED
  5
FFFF
  9
$MEASUREMENT
 70
     1
  0
ENDSEC
  0
SECTION
  2
TABLES
  0
TABLE
  2
VPORT
  5
8
330
0
100
AcDbSymbolTable
 70
     4
  0
VPORT
  5
2E
330
8
100
AcDbSymbolTableRecord
100
AcDbViewportTableRecord
  2
*ACTIVE
 70
     0
 10
0.0
 20
0.0
 11
1.0
 21
1.0
 12
210.0
 22
148.5
 13
0.0
 23
0.0
 14
10.0
 24
10.0
 15
10.0
 25
10.0
 16
0.0
 26
0.0
 36
1.0
 17
0.0
 27
0.0
 37
0.0
 40
341.0
 41
1.24
 42
50.0
 43
0.0
 44
0.0
 50
0.0
 51
0.0
 71
     0
 72
   100
 73
     1
 74
     3
 75
     0
 76
     0
 77
     0
 78
     0
  0
ENDTAB
  0
TABLE
  2
LTYPE
  5
5
330
0
100
AcDbSymbolTable
 70
     1
  0
LTYPE
  5
14
330
5
100
AcDbSymbolTableRecord
100
AcDbLinetypeTableRecord
  2
BYBLOCK
 70
     0
  3

 72
    65
 73
     0
 40
0.0
  0
LTYPE
  5
15
330
5
100
AcDbSymbolTableRecord
100
AcDbLinetypeTableRecord
  2
BYLAYER
 70
     0
  3

 72
    65
 73
     0
 40
0.0
  0
LTYPE
  5
16
330
5
100
AcDbSymbolTableRecord
100
AcDbLinetypeTableRecord
  2
CONTINUOUS
 70
     0
  3
Solid line
 72
    65
 73
     0
 40
0.0
  0
ENDTAB
  0
TABLE
  2
LAYER
  5
2
100
AcDbSymbolTable
 70
2
  0
LAYER
  5
50
100
AcDbSymbolTableRecord
100
AcDbLayerTableRecord
  2
0
 70
0
  6
CONTINUOUS
  0
LAYER
  5
51
100
AcDbSymbolTableRecord
100
AcDbLayerTableRecord
  2
Layer_1
 70
0
  6
CONTINUOUS
  0
ENDTAB
  0
TABLE
  2
STYLE
  5
3
330
0
100
AcDbSymbolTable
 70
     1
  0
STYLE
  5
11
330
3
100
AcDbSymbolTableRecord
100
AcDbTextStyleTableRecord
  2
STANDARD
 70
     0
 40
0.0
 41
1.0
 50
0.0
 71
     0
 42
2.5
  3
txt
  4

  0
ENDTAB
  0
TABLE
  2
VIEW
  5
6
330
0
100
AcDbSymbolTable
 70
     0
  0
ENDTAB
  0
TABLE
  2
UCS
  5
7
330
0
100
AcDbSymbolTable
 70
     0
  0
ENDTAB
  0
TABLE
  2
APPID
  5
9
330
0
100
AcDbSymbolTable
 70
     2
  0
APPID
  5
12
330
9
100
AcDbSymbolTableRecord
100
AcDbRegAppTableRecord
  2
ACAD
 70
     0
  0
ENDTAB
  0
TABLE
  2
DIMSTYLE
  5
A
330
0
100
AcDbSymbolTable
 70
     1
  0
DIMSTYLE
105
27
330
A
100
AcDbSymbolTableRecord
100
AcDbDimStyleTableRecord
  2
ISO-25
 70
     0
  3

  4

  5

  6

  7

 40
1.0
 41
2.5
 42
0.625
 43
3.75
 44
1.25
 45
0.0
 46
0.0
 47
0.0
 48
0.0
140
2.5
141
2.5
142
0.0
143
0.03937007874016
144
1.0
145
0.0
146
1.0
147
0.625
 71
     0
 72
     0
 73
     0
 74
     0
 75
     0
 76
     0
 77
     1
 78
     8
170
     0
171
     3
172
     1
173
     0
174
     0
175
     0
176
     0
177
     0
178
     0
270
     2
271
     2
272
     2
273
     2
274
     3
340
11
275
     0
280
     0
281
     0
282
     0
283
     0
284
     8
285
     0
286
     0
287
     3
288
     0
  0
ENDTAB
  0
TABLE
  2
BLOCK_RECORD
  5
1
330
0
100
AcDbSymbolTable
 70
     1
  0
BLOCK_RECORD
  5
1F
330
1
100
AcDbSymbolTableRecord
100
AcDbBlockTableRecord
  2
*MODEL_SPACE
  0
BLOCK_RECORD
  5
1B
330
1
100
AcDbSymbolTableRecord
100
AcDbBlockTableRecord
  2
*PAPER_SPACE
  0
ENDTAB
  0
ENDSEC
  0
SECTION
  2
BLOCKS
  0
BLOCK
  5
20
330
1F
100
AcDbEntity
  8
0
100
AcDbBlockBegin
  2
*MODEL_SPACE
 70
     0
 10
0.0
 20
0.0
 30
0.0
  3
*MODEL_SPACE
  1

  0
ENDBLK
  5
21
330
1F
100
AcDbEntity
  8
0
100
AcDbBlockEnd
  0
BLOCK
  5
1C
330
1B
100
AcDbEntity
 67
     1
  8
0
100
AcDbBlockBegin
  2
*PAPER_SPACE
  1

  0
ENDBLK
  5
1D
330
1B
100
AcDbEntity
 67
     1
  8
0
100
AcDbBlockEnd
  0
ENDSEC
  0
SECTION
  2
ENTITIES
  0
LWPOLYLINE
  5
100
100
AcDbEntity
  8
Layer_1
 62
7
100
AcDbPolyline
 90
73
 70
1
 10
12.567357
 20
33.497206
 30
0.0
 10
13.193417
 20
33.501962
 30
0.0
 10
13.804198
 20
33.461606
 30
0.0
 10
14.389534
 20
33.379956
 30
0.0
 10
14.939264
 20
33.260775
 30
0.0
 10
15.443215
 20
33.107843
 30
0.0
 10
15.891225
 20
32.924935
 30
0.0
 10
16.273122
 20
32.715822
 30
0.0
 10
16.578736
 20
32.484290
 30
0.0
 10
16.820412
 20
32.235690
 30
0.0
 10
17.042420
 20
31.951810
 30
0.0
 10
17.240879
 20
31.639123
 30
0.0
 10
17.411932
 20
31.304091
 30
0.0
 10
17.551711
 20
30.953161
 30
0.0
 10
17.656339
 20
30.592807
 30
0.0
 10
17.721969
 20
30.229485
 30
0.0
 10
17.744729
 20
29.869654
 30
0.0
 10
17.707362
 20
29.457911
 30
0.0
 10
17.607239
 20
28.958308
 30
0.0
 10
17.462445
 20
28.406486
 30
0.0
 10
17.291060
 20
27.838086
 30
0.0
 10
17.111141
 20
27.288758
 30
0.0
 10
16.940761
 20
26.794141
 30
0.0
 10
16.797985
 20
26.389878
 30
0.0
 10
16.700886
 20
26.111610
 30
0.0
 10
16.586298
 20
25.692257
 30
0.0
 10
16.387098
 20
24.917789
 30
0.0
 10
16.115366
 20
23.903384
 30
0.0
 10
15.783200
 20
22.764255
 30
0.0
 10
15.402703
 20
21.615595
 30
0.0
 10
14.985952
 20
20.572587
 30
0.0
 10
14.545049
 20
19.750446
 30
0.0
 10
14.092093
 20
19.264356
 30
0.0
 10
13.647351
 20
19.018189
 30
0.0
 10
13.218290
 20
18.833175
 30
0.0
 10
12.797789
 20
18.700597
 30
0.0
 10
12.378715
 20
18.611704
 30
0.0
 10
11.953961
 20
18.557760
 30
0.0
 10
11.516394
 20
18.530040
 30
0.0
 10
11.058893
 20
18.519849
 30
0.0
 10
10.574345
 20
18.518490
 30
0.0
 10
10.100919
 20
18.617465
 30
0.0
 10
9.684115
 20
18.887065
 30
0.0
 10
9.327810
 20
19.286307
 30
0.0
 10
9.035879
 20
19.774197
 30
0.0
 10
8.812194
 20
20.309761
 30
0.0
 10
8.660619
 20
20.852011
 30
0.0
 10
8.585036
 20
21.359957
 30
0.0
 10
8.589113
 20
21.792619
 30
0.0
 10
8.668249
 20
22.251051
 30
0.0
 10
8.801398
 20
22.841381
 30
0.0
 10
8.968659
 20
23.530238
 30
0.0
 10
9.150127
 20
24.284249
 30
0.0
 10
9.325915
 20
25.070043
 30
0.0
 10
9.476116
 20
25.854240
 30
0.0
 10
9.580832
 20
26.603468
 30
0.0
 10
9.620170
 20
27.284355
 30
0.0
 10
9.644492
 20
27.991447
 30
0.0
 10
9.720700
 20
28.808364
 30
0.0
 10
9.853740
 20
29.685367
 30
0.0
 10
10.048551
 20
30.572697
 30
0.0
 10
10.310066
 20
31.420608
 30
0.0
 10
10.643223
 20
32.179361
 30
0.0
 10
11.052949
 20
32.799198
 30
0.0
 10
11.544182
 20
33.230379
 30
0.0
 10
11.653198
 20
33.289759
 30
0.0
 10
11.768465
 20
33.341053
 30
0.0
 10
11.889548
 20
33.384603
 30
0.0
 10
12.016018
 20
33.420747
 30
0.0
 10
12.147454
 20
33.449757
 30
0.0
 10
12.283423
 20
33.471974
 30
0.0
 10
12.423501
 20
33.487736
 30
0.0
 10
12.567357
 20
33.497206
 30
0.0
  0
LWPOLYLINE
  5
101
100
AcDbEntity
  8
Layer_1
 62
7
100
AcDbPolyline
 90
57
 70
1
 10
13.513476
 20
29.497411
 30
0.0
 10
13.285157
 20
29.458210
 30
0.0
 10
13.059698
 20
29.354391
 30
0.0
 10
12.842100
 20
29.198258
 30
0.0
 10
12.637356
 20
29.002068
 30
0.0
 10
12.450473
 20
28.778083
 30
0.0
 10
12.286453
 20
28.538568
 30
0.0
 10
12.150301
 20
28.295778
 30
0.0
 10
12.047005
 20
28.061983
 30
0.0
 10
12.006377
 20
27.683672
 30
0.0
 10
11.965817
 20
27.256235
 30
0.0
 10
11.924102
 20
26.797708
 30
0.0
 10
11.880009
 20
26.326130
 30
0.0
 10
11.832315
 20
25.859539
 30
0.0
 10
11.779865
 20
25.415986
 30
0.0
 10
11.721369
 20
25.013489
 30
0.0
 10
11.655671
 20
24.670107
 30
0.0
 10
11.589905
 20
24.409245
 30
0.0
 10
11.525634
 20
24.169308
 30
0.0
 10
11.476717
 20
23.943673
 30
0.0
 10
11.457151
 20
23.725721
 30
0.0
 10
11.480794
 20
23.508850
 30
0.0
 10
11.561595
 20
23.286428
 30
0.0
 10
11.713447
 20
23.051845
 30
0.0
 10
11.950245
 20
22.798490
 30
0.0
 10
12.216767
 20
22.622016
 30
0.0
 10
12.448931
 20
22.598985
 30
0.0
 10
12.647384
 20
22.694284
 30
0.0
 10
12.812770
 20
22.872688
 30
0.0
 10
12.945729
 20
23.099002
 30
0.0
 10
13.046898
 20
23.338036
 30
0.0
 10
13.116924
 20
23.554601
 30
0.0
 10
13.156465
 20
23.713499
 30
0.0
 10
13.219989
 20
23.963919
 30
0.0
 10
13.348178
 20
24.434281
 30
0.0
 10
13.520847
 20
25.058269
 30
0.0
 10
13.717825
 20
25.769552
 30
0.0
 10
13.918948
 20
26.501809
 30
0.0
 10
14.104030
 20
27.188716
 30
0.0
 10
14.252907
 20
27.763943
 30
0.0
 10
14.345400
 20
28.161175
 30
0.0
 10
14.388814
 20
28.423308
 30
0.0
 10
14.403082
 20
28.641918
 30
0.0
 10
14.386844
 20
28.823664
 30
0.0
 10
14.338742
 20
28.975218
 30
0.0
 10
14.257473
 20
29.103251
 30
0.0
 10
14.141703
 20
29.214428
 30
0.0
 10
13.990122
 20
29.315414
 30
0.0
 10
13.801398
 20
29.412873
 30
0.0
 10
13.762401
 20
29.433663
 30
0.0
 10
13.724287
 20
29.451395
 30
0.0
 10
13.686988
 20
29.466138
 30
0.0
 10
13.650572
 20
29.477960
 30
0.0
 10
13.614971
 20
29.486928
 30
0.0
 10
13.580254
 20
29.493043
 30
0.0
 10
13.546420
 20
29.496440
 30
0.0
 10
13.513476
 20
29.497411
 30
0.0
  0
LWPOLYLINE
  5
102
100
AcDbEntity
  8
Layer_1
 62
7
100
AcDbPolyline
 90
97
 70
1
 10
19.001163
 20
30.526185
 30
0.0
 10
19.352161
 20
30.699799
 30
0.0
 10
19.688905
 20
30.831582
 30
0.0
 10
20.018992
 20
30.923444
 30
0.0
 10
20.350056
 20
30.977320
 30
0.0
 10
20.689688
 20
30.995120
 30
0.0
 10
21.045517
 20
30.978815
 30
0.0
 10
21.425152
 20
30.930238
 30
0.0
 10
21.836202
 20
30.851373
 30
0.0
 10
22.272078
 20
30.752806
 30
0.0
 10
22.710168
 20
30.640188
 30
0.0
 10
23.134073
 20
30.508066
 30
0.0
 10
23.527384
 20
30.350948
 30
0.0
 10
23.873688
 20
30.163379
 30
0.0
 10
24.156576
 20
29.939877
 30
0.0
 10
24.359649
 20
29.674979
 30
0.0
 10
24.466491
 20
29.363203
 30
0.0
 10
24.449574
 20
28.881101
 30
0.0
 10
24.314407
 20
28.163682
 30
0.0
 10
24.094044
 20
27.293181
 30
0.0
 10
23.821544
 20
26.351832
 30
0.0
 10
23.529966
 20
25.421856
 30
0.0
 10
23.252390
 20
24.585495
 30
0.0
 10
23.021870
 20
23.924982
 30
0.0
 10
22.871478
 20
23.522540
 30
0.0
 10
22.740293
 20
23.219480
 30
0.0
 10
22.555476
 20
22.823560
 30
0.0
 10
22.332218
 20
22.366684
 30
0.0
 10
22.085705
 20
21.880771
 30
0.0
 10
21.831134
 20
21.397732
 30
0.0
 10
21.583690
 20
20.949464
 30
0.0
 10
21.358564
 20
20.567879
 30
0.0
 10
21.170941
 20
20.284895
 30
0.0
 10
20.894412
 20
19.994010
 30
0.0
 10
20.490746
 20
19.691216
 30
0.0
 10
19.996993
 20
19.411772
 30
0.0
 10
19.450171
 20
19.190933
 30
0.0
 10
18.887329
 20
19.063953
 30
0.0
 10
18.345501
 20
19.065991
 30
0.0
 10
17.861715
 20
19.232519
 30
0.0
 10
17.473010
 20
19.598675
 30
0.0
 10
17.192696
 20
20.067759
 30
0.0
 10
17.001778
 20
20.522182
 30
0.0
 10
16.888835
 20
20.965898
 30
0.0
 10
16.842432
 20
21.402854
 30
0.0
 10
16.851196
 20
21.837011
 30
0.0
 10
16.903646
 20
22.272316
 30
0.0
 10
16.988428
 20
22.712730
 30
0.0
 10
17.094081
 20
23.162193
 30
0.0
 10
17.242985
 20
23.593306
 30
0.0
 10
17.451853
 20
23.952750
 30
0.0
 10
17.708619
 20
24.237418
 30
0.0
 10
18.001223
 20
24.444193
 30
0.0
 10
18.317605
 20
24.569977
 30
0.0
 10
18.645715
 20
24.611624
 30
0.0
 10
18.973471
 20
24.566105
 30
0.0
 10
19.288827
 20
24.430225
 30
0.0
 10
19.588633
 20
24.323586
 30
0.0
 10
19.872500
 20
24.349743
 30
0.0
 10
20.132479
 20
24.481506
 30
0.0
 10
20.360628
 20
24.691726
 30
0.0
 10
20.549005
 20
24.953233
 30
0.0
 10
20.689668
 20
25.238867
 30
0.0
 10
20.774674
 20
25.521463
 30
0.0
 10
20.796075
 20
25.773860
 30
0.0
 10
20.798793
 20
26.024035
 30
0.0
 10
20.821009
 20
26.301740
 30
0.0
 10
20.844177
 20
26.582481
 30
0.0
 10
20.849612
 20
26.841747
 30
0.0
 10
20.819379
 20
27.055038
 30
0.0
 10
20.734800
 20
27.197841
 30
0.0
 10
20.577424
 20
27.245670
 30
0.0
 10
20.328825
 20
27.174000
 30
0.0
 10
20.059375
 20
27.043739
 30
0.0
 10
19.842361
 20
26.936876
 30
0.0
 10
19.663707
 20
26.860546
 30
0.0
 10
19.509333
 20
26.821888
 30
0.0
 10
19.365144
 20
26.828003
 30
0.0
 10
19.217076
 20
26.886023
 30
0.0
 10
19.051038
 20
27.003118
 30
0.0
 10
18.852945
 20
27.186406
 30
0.0
 10
18.657461
 20
27.478827
 30
0.0
 10
18.512233
 20
27.890665
 30
0.0
 10
18.422715
 20
28.380091
 30
0.0
 10
18.394316
 20
28.905233
 30
0.0
 10
18.432499
 20
29.424260
 30
0.0
 10
18.542670
 20
29.895308
 30
0.0
 10
18.730273
 20
30.276540
 30
0.0
 10
19.000748
 20
30.526090
 30
0.0
 10
19.000748
 20
30.526090
 30
0.0
 10
19.000748
 20
30.526090
 30
0.0
 10
19.000748
 20
30.526090
 30
0.0
 10
19.000748
 20
30.526090
 30
0.0
 10
19.000748
 20
30.526083
 30
0.0
 10
19.000748
 20
30.526083
 30
0.0
 10
19.000748
 20
30.526083
 30
0.0
 10
19.001163
 20
30.526185
 30
0.0
  0
LWPOLYLINE
  5
103
100
AcDbEntity
  8
Layer_1
 62
7
100
AcDbPolyline
 90
65
 70
1
 10
28.417995
 20
28.600176
 30
0.0
 10
28.496329
 20
28.600142
 30
0.0
 10
28.574073
 20
28.598104
 30
0.0
 10
28.651001
 20
28.594027
 30
0.0
 10
28.726870
 20
28.587233
 30
0.0
 10
28.801448
 20
28.578401
 30
0.0
 10
28.874503
 20
28.567259
 30
0.0
 10
28.945813
 20
28.553807
 30
0.0
 10
29.015126
 20
28.537977
 30
0.0
 10
29.307478
 20
28.459669
 30
0.0
 10
29.625349
 20
28.366449
 30
0.0
 10
29.948845
 20
28.266129
 30
0.0
 10
30.258101
 20
28.166522
 30
0.0
 10
30.533237
 20
28.075448
 30
0.0
 10
30.754368
 20
28.000721
 30
0.0
 10
30.901628
 20
27.950174
 30
0.0
 10
30.955097
 20
27.931558
 30
0.0
 10
31.121128
 20
27.844011
 30
0.0
 10
31.331593
 20
27.683034
 30
0.0
 10
31.564491
 20
27.464627
 30
0.0
 10
31.797844
 20
27.204818
 30
0.0
 10
32.009647
 20
26.919613
 30
0.0
 10
32.177928
 20
26.625018
 30
0.0
 10
32.280673
 20
26.337041
 30
0.0
 10
32.295892
 20
26.071702
 30
0.0
 10
32.114852
 20
25.381914
 30
0.0
 10
31.782042
 20
24.565636
 30
0.0
 10
31.351690
 20
23.690202
 30
0.0
 10
30.878012
 20
22.822942
 30
0.0
 10
30.415219
 20
22.031197
 30
0.0
 10
30.017525
 20
21.382302
 30
0.0
 10
29.739148
 20
20.943580
 30
0.0
 10
29.634310
 20
20.782379
 30
0.0
 10
29.055285
 20
19.722488
 30
0.0
 10
28.435761
 20
18.972771
 30
0.0
 10
27.785093
 20
18.490791
 30
0.0
 10
27.112617
 20
18.234128
 30
0.0
 10
26.427666
 20
18.160352
 30
0.0
 10
25.739598
 20
18.227069
 30
0.0
 10
25.057745
 20
18.391789
 30
0.0
 10
24.391458
 20
18.612118
 30
0.0
 10
23.789700
 20
18.889381
 30
0.0
 10
23.379350
 20
19.180973
 30
0.0
 10
23.127082
 20
19.479494
 30
0.0
 10
22.999565
 20
19.777554
 30
0.0
 10
22.963489
 20
20.067759
 30
0.0
 10
22.985434
 20
20.342692
 30
0.0
 10
23.032177
 20
20.594973
 30
0.0
 10
23.070359
 20
20.817198
 30
0.0
 10
23.216090
 20
21.264705
 30
0.0
 10
23.565125
 20
22.107935
 30
0.0
 10
24.053491
 20
23.212129
 30
0.0
 10
24.617209
 20
24.442542
 30
0.0
 10
25.192300
 20
25.664422
 30
0.0
 10
25.714786
 20
26.743030
 30
0.0
 10
26.120693
 20
27.543601
 30
0.0
 10
26.346036
 20
27.931395
 30
0.0
 10
26.474599
 20
28.038163
 30
0.0
 10
26.677373
 20
28.149883
 30
0.0
 10
26.935884
 20
28.260775
 30
0.0
 10
27.231654
 20
28.365049
 30
0.0
 10
27.546223
 20
28.456931
 30
0.0
 10
27.861118
 20
28.530632
 30
0.0
 10
28.157852
 20
28.580364
 30
0.0
 10
28.417995
 20
28.600176
 30
0.0
  0
LWPOLYLINE
  5
104
100
AcDbEntity
  8
Layer_1
 62
7
100
AcDbPolyline
 90
57
 70
1
 10
28.538751
 20
25.676903
 30
0.0
 10
28.352140
 20
25.657268
 30
0.0
 10
28.188330
 20
25.571188
 30
0.0
 10
28.044311
 20
25.434452
 30
0.0
 10
27.917073
 20
25.262863
 30
0.0
 10
27.803600
 20
25.072210
 30
0.0
 10
27.700888
 20
24.878268
 30
0.0
 10
27.605915
 20
24.696842
 30
0.0
 10
27.515670
 20
24.543705
 30
0.0
 10
27.440794
 20
24.325536
 30
0.0
 10
27.338306
 20
24.102211
 30
0.0
 10
27.216483
 20
23.876589
 30
0.0
 10
27.083586
 20
23.651558
 30
0.0
 10
26.947896
 20
23.429972
 30
0.0
 10
26.817669
 20
23.214725
 30
0.0
 10
26.701179
 20
23.008669
 30
0.0
 10
26.606702
 20
22.814687
 30
0.0
 10
26.532416
 20
22.656808
 30
0.0
 10
26.460787
 20
22.511892
 30
0.0
 10
26.403514
 20
22.374531
 30
0.0
 10
26.372329
 20
22.239345
 30
0.0
 10
26.379123
 20
22.100937
 30
0.0
 10
26.435106
 20
21.953915
 30
0.0
 10
26.552261
 20
21.792891
 30
0.0
 10
26.742269
 20
21.612469
 30
0.0
 10
26.963108
 20
21.477656
 30
0.0
 10
27.163836
 20
21.442327
 30
0.0
 10
27.342777
 20
21.484246
 30
0.0
 10
27.498244
 20
21.581339
 30
0.0
 10
27.628539
 20
21.711437
 30
0.0
 10
27.731991
 20
21.852379
 30
0.0
 10
27.806909
 20
21.982029
 30
0.0
 10
27.851613
 20
22.078232
 30
0.0
 10
27.923276
 20
22.229751
 30
0.0
 10
28.065610
 20
22.513564
 30
0.0
 10
28.256719
 20
22.889842
 30
0.0
 10
28.474690
 20
23.318747
 30
0.0
 10
28.697635
 20
23.760452
 30
0.0
 10
28.903636
 20
24.175117
 30
0.0
 10
29.070809
 20
24.522908
 30
0.0
 10
29.177237
 20
24.763987
 30
0.0
 10
29.232133
 20
24.924590
 30
0.0
 10
29.258765
 20
25.060382
 30
0.0
 10
29.256727
 20
25.175710
 30
0.0
 10
29.224659
 20
25.274909
 30
0.0
 10
29.162154
 20
25.362327
 30
0.0
 10
29.068499
 20
25.442306
 30
0.0
 10
28.942939
 20
25.519187
 30
0.0
 10
28.784741
 20
25.597311
 30
0.0
 10
28.752062
 20
25.613888
 30
0.0
 10
28.719994
 20
25.628495
 30
0.0
 10
28.688470
 20
25.641200
 30
0.0
 10
28.657490
 20
25.652003
 30
0.0
 10
28.627053
 20
25.660903
 30
0.0
 10
28.597227
 20
25.667969
 30
0.0
 10
28.567945
 20
25.673404
 30
0.0
 10
28.538751
 20
25.676903
 30
0.0
  0
LWPOLYLINE
  5
105
100
AcDbEntity
  8
Layer_1
 62
7
100
AcDbPolyline
 90
65
 70
1
 10
36.538532
 20
18.249217
 30
0.0
 10
36.004340
 20
18.126477
 30
0.0
 10
35.429690
 20
18.016380
 30
0.0
 10
34.817674
 20
17.927555
 30
0.0
 10
34.171381
 20
17.868651
 30
0.0
 10
33.493918
 20
17.848269
 30
0.0
 10
32.788362
 20
17.874970
 30
0.0
 10
32.057824
 20
17.957469
 30
0.0
 10
31.305395
 20
18.104362
 30
0.0
 10
31.093416
 20
18.228747
 30
0.0
 10
30.924823
 20
18.472019
 30
0.0
 10
30.802830
 20
18.805951
 30
0.0
 10
30.730623
 20
19.202299
 30
0.0
 10
30.711396
 20
19.632848
 30
0.0
 10
30.748356
 20
20.069349
 30
0.0
 10
30.844722
 20
20.483572
 30
0.0
 10
31.003681
 20
20.847289
 30
0.0
 10
31.265358
 20
21.131407
 30
0.0
 10
31.643247
 20
21.333460
 30
0.0
 10
32.100605
 20
21.465128
 30
0.0
 10
32.600684
 20
21.538102
 30
0.0
 10
33.106742
 20
21.564055
 30
0.0
 10
33.582036
 20
21.554680
 30
0.0
 10
33.989819
 20
21.521729
 30
0.0
 10
34.293347
 20
21.476820
 30
0.0
 10
34.559420
 20
21.476766
 30
0.0
 10
34.858492
 20
21.560577
 30
0.0
 10
35.159276
 20
21.713190
 30
0.0
 10
35.430479
 20
21.919544
 30
0.0
 10
35.640807
 20
22.164570
 30
0.0
 10
35.758982
 20
22.433204
 30
0.0
 10
35.753547
 20
22.710393
 30
0.0
 10
35.593534
 20
22.981059
 30
0.0
 10
35.194897
 20
23.271325
 30
0.0
 10
34.754435
 20
23.398618
 30
0.0
 10
34.299469
 20
23.418660
 30
0.0
 10
33.857288
 20
23.387068
 30
0.0
 10
33.455213
 20
23.359552
 30
0.0
 10
33.120534
 20
23.391824
 30
0.0
 10
32.880576
 20
23.539586
 30
0.0
 10
32.762633
 20
23.858510
 30
0.0
 10
32.800475
 20
24.284568
 30
0.0
 10
32.986814
 20
24.703568
 30
0.0
 10
33.287571
 20
25.095955
 30
0.0
 10
33.668632
 20
25.442170
 30
0.0
 10
34.095880
 20
25.722674
 30
0.0
 10
34.535200
 20
25.917899
 30
0.0
 10
34.952473
 20
26.008300
 30
0.0
 10
35.313581
 20
25.974330
 30
0.0
 10
35.851598
 20
25.826323
 30
0.0
 10
36.485043
 20
25.669878
 30
0.0
 10
37.170700
 20
25.480502
 30
0.0
 10
37.865345
 20
25.233737
 30
0.0
 10
38.525769
 20
24.905098
 30
0.0
 10
39.108741
 20
24.470112
 30
0.0
 10
39.571045
 20
23.904302
 30
0.0
 10
39.869458
 20
23.183200
 30
0.0
 10
39.792333
 20
22.395443
 30
0.0
 10
39.565311
 20
21.595627
 30
0.0
 10
39.214877
 20
20.814222
 30
0.0
 10
38.767513
 20
20.081673
 30
0.0
 10
38.249695
 20
19.428451
 30
0.0
 10
37.687913
 20
18.884999
 30
0.0
 10
37.108643
 20
18.481782
 30
0.0
 10
36.538532
 20
18.249217
 30
0.0
  0
LWPOLYLINE
  5
106
100
AcDbEntity
  8
Layer_1
 62
7
100
AcDbPolyline
 90
81
 70
1
 10
16.385440
 20
43.776706
 30
0.0
 10
16.434901
 20
43.779423
 30
0.0
 10
16.484701
 20
43.780782
 30
0.0
 10
16.534908
 20
43.781462
 30
0.0
 10
16.585524
 20
43.781659
 30
0.0
 10
16.636547
 20
43.781101
 30
0.0
 10
16.688045
 20
43.779743
 30
0.0
 10
16.739951
 20
43.777704
 30
0.0
 10
16.792333
 20
43.774987
 30
0.0
 10
17.587706
 20
43.730554
 30
0.0
 10
18.291788
 20
43.691421
 30
0.0
 10
18.908975
 20
43.650657
 30
0.0
 10
19.443642
 20
43.601400
 30
0.0
 10
19.900178
 20
43.536654
 30
0.0
 10
20.282966
 20
43.449582
 30
0.0
 10
20.596386
 20
43.333241
 30
0.0
 10
20.844829
 20
43.180723
 30
0.0
 10
21.050660
 20
42.992930
 30
0.0
 10
21.226421
 20
42.774612
 30
0.0
 10
21.361757
 20
42.524620
 30
0.0
 10
21.446302
 20
42.241813
 30
0.0
 10
21.469673
 20
41.925036
 30
0.0
 10
21.421571
 20
41.573148
 30
0.0
 10
21.291596
 20
41.185000
 30
0.0
 10
21.069398
 20
40.759445
 30
0.0
 10
20.823421
 20
40.351139
 30
0.0
 10
20.625818
 20
40.012397
 30
0.0
 10
20.471784
 20
39.738558
 30
0.0
 10
20.356524
 20
39.524962
 30
0.0
 10
20.275234
 20
39.366940
 30
0.0
 10
20.223124
 20
39.259840
 30
0.0
 10
20.195405
 20
39.199034
 30
0.0
 10
20.187252
 20
39.179807
 30
0.0
 10
20.018503
 20
38.818053
 30
0.0
 10
19.883683
 20
38.465893
 30
0.0
 10
19.769217
 20
38.111383
 30
0.0
 10
19.661526
 20
37.742571
 30
0.0
 10
19.547047
 20
37.347520
 30
0.0
 10
19.412193
 20
36.914267
 30
0.0
 10
19.243403
 20
36.430881
 30
0.0
 10
19.027096
 20
35.885405
 30
0.0
 10
18.993329
 20
35.786878
 30
0.0
 10
18.892513
 20
35.529372
 30
0.0
 10
18.725503
 20
35.169990
 30
0.0
 10
18.493121
 20
34.765856
 30
0.0
 10
18.196197
 20
34.374067
 30
0.0
 10
17.835551
 20
34.051739
 30
0.0
 10
17.412020
 20
33.855991
 30
0.0
 10
16.926419
 20
33.843897
 30
0.0
 10
16.305278
 20
33.964083
 30
0.0
 10
15.523785
 20
34.125427
 30
0.0
 10
14.655777
 20
34.325537
 30
0.0
 10
13.775078
 20
34.562009
 30
0.0
 10
12.955532
 20
34.832444
 30
0.0
 10
12.270963
 20
35.134444
 30
0.0
 10
11.795206
 20
35.465617
 30
0.0
 10
11.602094
 20
35.823566
 30
0.0
 10
11.585245
 20
36.270855
 30
0.0
 10
11.593669
 20
36.845260
 30
0.0
 10
11.634365
 20
37.507200
 30
0.0
 10
11.714262
 20
38.217084
 30
0.0
 10
11.840318
 20
38.935325
 30
0.0
 10
12.019483
 20
39.622340
 30
0.0
 10
12.258699
 20
40.238542
 30
0.0
 10
12.564918
 20
40.744348
 30
0.0
 10
12.897131
 20
41.188248
 30
0.0
 10
13.250453
 20
41.669813
 30
0.0
 10
13.635088
 20
42.160944
 30
0.0
 10
14.061248
 20
42.633528
 30
0.0
 10
14.539152
 20
43.059464
 30
0.0
 10
15.079003
 20
43.410645
 30
0.0
 10
15.691006
 20
43.658959
 30
0.0
 10
16.385386
 20
43.776305
 30
0.0
 10
16.385386
 20
43.776319
 30
0.0
 10
16.385386
 20
43.776332
 30
0.0
 10
16.385386
 20
43.776339
 30
0.0
 10
16.385386
 20
43.776352
 30
0.0
 10
16.385386
 20
43.776366
 30
0.0
 10
16.385386
 20
43.776380
 30
0.0
 10
16.385386
 20
43.776386
 30
0.0
 10
16.385440
 20
43.776706
 30
0.0
  0
LWPOLYLINE
  5
107
100
AcDbEntity
  8
Layer_1
 62
7
100
AcDbPolyline
 90
49
 70
1
 10
15.650880
 20
40.405600
 30
0.0
 10
15.577485
 20
40.203730
 30
0.0
 10
15.462442
 20
40.005481
 30
0.0
 10
15.322764
 20
39.803366
 30
0.0
 10
15.175450
 20
39.589899
 30
0.0
 10
15.037498
 20
39.357585
 30
0.0
 10
14.925913
 20
39.098944
 30
0.0
 10
14.857695
 20
38.806483
 30
0.0
 10
14.849882
 20
38.472721
 30
0.0
 10
14.872438
 20
38.291641
 30
0.0
 10
14.915036
 20
38.095315
 30
0.0
 10
14.980530
 20
37.889953
 30
0.0
 10
15.071733
 20
37.681771
 30
0.0
 10
15.191477
 20
37.476973
 30
0.0
 10
15.342596
 20
37.281775
 30
0.0
 10
15.527909
 20
37.102393
 30
0.0
 10
15.750243
 20
36.945030
 30
0.0
 10
16.148398
 20
36.928793
 30
0.0
 10
16.446858
 20
37.056846
 30
0.0
 10
16.660638
 20
37.288365
 30
0.0
 10
16.804752
 20
37.582497
 30
0.0
 10
16.894216
 20
37.898398
 30
0.0
 10
16.944016
 20
38.195227
 30
0.0
 10
16.969221
 20
38.432134
 30
0.0
 10
16.984780
 20
38.568265
 30
0.0
 10
17.043480
 20
38.715430
 30
0.0
 10
17.172912
 20
38.987686
 30
0.0
 10
17.350378
 20
39.347591
 30
0.0
 10
17.553165
 20
39.757717
 30
0.0
 10
17.758582
 20
40.180617
 30
0.0
 10
17.943929
 20
40.578847
 30
0.0
 10
18.086501
 20
40.914973
 30
0.0
 10
18.163599
 20
41.151553
 30
0.0
 10
18.173450
 20
41.329970
 30
0.0
 10
18.134317
 20
41.510990
 30
0.0
 10
18.053434
 20
41.686241
 30
0.0
 10
17.938161
 20
41.847354
 30
0.0
 10
17.795792
 20
41.985958
 30
0.0
 10
17.633647
 20
42.093690
 30
0.0
 10
17.459028
 20
42.162174
 30
0.0
 10
17.279259
 20
42.183031
 30
0.0
 10
16.857283
 20
42.132008
 30
0.0
 10
16.524011
 20
42.014724
 30
0.0
 10
16.266308
 20
41.839860
 30
0.0
 10
16.071008
 20
41.616093
 30
0.0
 10
15.924971
 20
41.352105
 30
0.0
 10
15.815051
 20
41.056580
 30
0.0
 10
15.728087
 20
40.738193
 30
0.0
 10
15.650880
 20
40.405600
 30
0.0
  0
LWPOLYLINE
  5
108
100
AcDbEntity
  8
Layer_1
 62
7
100
AcDbPolyline
 90
121
 70
1
 10
26.926692
 20
31.104959
 30
0.0
 10
26.503304
 20
30.713061
 30
0.0
 10
26.003021
 20
30.551106
 30
0.0
 10
25.460181
 20
30.568838
 30
0.0
 10
24.909133
 20
30.716050
 30
0.0
 10
24.384229
 20
30.942487
 30
0.0
 10
23.919799
 20
31.197921
 30
0.0
 10
23.550192
 20
31.432103
 30
0.0
 10
23.309752
 20
31.594813
 30
0.0
 10
23.042150
 20
31.691159
 30
0.0
 10
22.604617
 20
31.772924
 30
0.0
 10
22.051850
 20
31.859887
 30
0.0
 10
21.438529
 20
31.971805
 30
0.0
 10
20.819358
 20
32.128447
 30
0.0
 10
20.249016
 20
32.349585
 30
0.0
 10
19.782201
 20
32.654982
 30
0.0
 10
19.473597
 20
33.064409
 30
0.0
 10
19.404821
 20
33.424334
 30
0.0
 10
19.464405
 20
33.839590
 30
0.0
 10
19.615585
 20
34.278319
 30
0.0
 10
19.821640
 20
34.708691
 30
0.0
 10
20.045848
 20
35.098857
 30
0.0
 10
20.251476
 20
35.416966
 30
0.0
 10
20.401786
 20
35.631187
 30
0.0
 10
20.460078
 20
35.709671
 30
0.0
 10
20.466193
 20
35.768439
 30
0.0
 10
20.490583
 20
35.922480
 30
0.0
 10
20.540655
 20
36.138515
 30
0.0
 10
20.624147
 20
36.383255
 30
0.0
 10
20.748735
 20
36.623409
 30
0.0
 10
20.922131
 20
36.825667
 30
0.0
 10
21.152047
 20
36.956743
 30
0.0
 10
21.446179
 20
36.983376
 30
0.0
 10
21.784384
 20
36.870222
 30
0.0
 10
22.139486
 20
36.631372
 30
0.0
 10
22.508618
 20
36.307529
 30
0.0
 10
22.888925
 20
35.939390
 30
0.0
 10
23.277555
 20
35.567656
 30
0.0
 10
23.671661
 20
35.233038
 30
0.0
 10
24.068376
 20
34.976225
 30
0.0
 10
24.464854
 20
34.837920
 30
0.0
 10
24.639663
 20
34.834523
 30
0.0
 10
24.828448
 20
34.874743
 30
0.0
 10
25.019719
 20
34.952820
 30
0.0
 10
25.201982
 20
35.063005
 30
0.0
 10
25.363747
 20
35.199558
 30
0.0
 10
25.493526
 20
35.356703
 30
0.0
 10
25.579816
 20
35.528693
 30
0.0
 10
25.611137
 20
35.709766
 30
0.0
 10
25.553524
 20
35.888876
 30
0.0
 10
25.397037
 20
36.058794
 30
0.0
 10
25.166055
 20
36.219533
 30
0.0
 10
24.884981
 20
36.371087
 30
0.0
 10
24.578218
 20
36.513455
 30
0.0
 10
24.270172
 20
36.646631
 30
0.0
 10
23.985245
 20
36.770628
 30
0.0
 10
23.747842
 20
36.885440
 30
0.0
 10
23.581505
 20
37.025322
 30
0.0
 10
23.485818
 20
37.214569
 30
0.0
 10
23.449199
 20
37.438261
 30
0.0
 10
23.460137
 20
37.681472
 30
0.0
 10
23.507016
 20
37.929277
 30
0.0
 10
23.578305
 20
38.166747
 30
0.0
 10
23.662435
 20
38.378958
 30
0.0
 10
23.747849
 20
38.550981
 30
0.0
 10
23.860168
 20
38.685706
 30
0.0
 10
24.019908
 20
38.797067
 30
0.0
 10
24.207830
 20
38.886734
 30
0.0
 10
24.404713
 20
38.956366
 30
0.0
 10
24.591317
 20
39.007592
 30
0.0
 10
24.748415
 20
39.042174
 30
0.0
 10
24.856772
 20
39.061673
 30
0.0
 10
24.897196
 20
39.067787
 30
0.0
 10
24.943260
 20
39.041359
 30
0.0
 10
25.070375
 20
38.971706
 30
0.0
 10
25.261783
 20
38.873241
 30
0.0
 10
25.500755
 20
38.760366
 30
0.0
 10
25.770551
 20
38.647483
 30
0.0
 10
26.054438
 20
38.549018
 30
0.0
 10
26.335682
 20
38.479366
 30
0.0
 10
26.597557
 20
38.452937
 30
0.0
 10
26.834559
 20
38.509124
 30
0.0
 10
27.050227
 20
38.657328
 30
0.0
 10
27.241404
 20
38.866862
 30
0.0
 10
27.404915
 20
39.107056
 30
0.0
 10
27.537601
 20
39.347245
 30
0.0
 10
27.636298
 20
39.556778
 30
0.0
 10
27.697851
 20
39.704982
 30
0.0
 10
27.719049
 20
39.761169
 30
0.0
 10
27.193812
 20
39.971361
 30
0.0
 10
26.522843
 20
40.155227
 30
0.0
 10
25.775660
 20
40.332557
 30
0.0
 10
25.021819
 20
40.523136
 30
0.0
 10
24.330849
 20
40.746747
 30
0.0
 10
23.772280
 20
41.023188
 30
0.0
 10
23.415650
 20
41.372229
 30
0.0
 10
23.330508
 20
41.813676
 30
0.0
 10
23.377522
 20
41.885876
 30
0.0
 10
23.505161
 20
42.076223
 30
0.0
 10
23.693409
 20
42.345340
 30
0.0
 10
23.922238
 20
42.653835
 30
0.0
 10
24.171618
 20
42.962323
 30
0.0
 10
24.421522
 20
43.231440
 30
0.0
 10
24.651913
 20
43.421787
 30
0.0
 10
24.842763
 20
43.493987
 30
0.0
 10
25.706959
 20
43.329090
 30
0.0
 10
26.669308
 20
43.205976
 30
0.0
 10
27.663888
 20
43.090105
 30
0.0
 10
28.624770
 20
42.946928
 30
0.0
 10
29.486031
 20
42.741912
 30
0.0
 10
30.181757
 20
42.440517
 30
0.0
 10
30.646024
 20
42.008188
 30
0.0
 10
30.812905
 20
41.410384
 30
0.0
 10
30.688086
 20
39.964051
 30
0.0
 10
30.362273
 20
38.560520
 30
0.0
 10
29.884404
 20
37.200981
 30
0.0
 10
29.303388
 20
35.886628
 30
0.0
 10
28.668163
 20
34.618651
 30
0.0
 10
28.027632
 20
33.398245
 30
0.0
 10
27.430739
 20
32.226607
 30
0.0
 10
26.926692
 20
31.104959
 30
0.0
  0
LWPOLYLINE
  5
109
100
AcDbEntity
  8
Layer_1
 62
7
100
AcDbPolyline
 90
105
 70
1
 10
43.719093
 20
36.888260
 30
0.0
 10
43.519349
 20
37.313978
 30
0.0
 10
43.176028
 20
37.749195
 30
0.0
 10
42.724268
 20
38.177984
 30
0.0
 10
42.199194
 20
38.584435
 30
0.0
 10
41.635931
 20
38.952615
 30
0.0
 10
41.069618
 20
39.266607
 30
0.0
 10
40.535378
 20
39.510491
 30
0.0
 10
40.068339
 20
39.668349
 30
0.0
 10
39.350472
 20
39.606999
 30
0.0
 10
38.588511
 20
39.151632
 30
0.0
 10
37.825539
 20
38.426203
 30
0.0
 10
37.104662
 20
37.554690
 30
0.0
 10
36.468968
 20
36.661041
 30
0.0
 10
35.961545
 20
35.869242
 30
0.0
 10
35.625487
 20
35.303254
 30
0.0
 10
35.503895
 20
35.087042
 30
0.0
 10
35.410987
 20
35.066049
 30
0.0
 10
35.175310
 20
35.029633
 30
0.0
 10
34.861393
 20
35.017540
 30
0.0
 10
34.533787
 20
35.069582
 30
0.0
 10
34.257047
 20
35.225538
 30
0.0
 10
34.095717
 20
35.525201
 30
0.0
 10
34.114332
 20
36.008349
 30
0.0
 10
34.377450
 20
36.714775
 30
0.0
 10
34.783194
 20
37.469330
 30
0.0
 10
35.172456
 20
38.088548
 30
0.0
 10
35.523937
 20
38.599722
 30
0.0
 10
35.816323
 20
39.030169
 30
0.0
 10
36.028316
 20
39.407181
 30
0.0
 10
36.138617
 20
39.758064
 30
0.0
 10
36.125912
 20
40.110122
 30
0.0
 10
35.968903
 20
40.490661
 30
0.0
 10
35.881328
 20
40.568397
 30
0.0
 10
35.636479
 20
40.749281
 30
0.0
 10
35.261152
 20
40.954820
 30
0.0
 10
34.782162
 20
41.106523
 30
0.0
 10
34.226290
 20
41.125886
 30
0.0
 10
33.620361
 20
40.934424
 30
0.0
 10
32.991162
 20
40.453640
 30
0.0
 10
32.365503
 20
39.605043
 30
0.0
 10
31.744437
 20
38.436564
 30
0.0
 10
31.138691
 20
37.131981
 30
0.0
 10
30.569062
 20
35.781266
 30
0.0
 10
30.056360
 20
34.474387
 30
0.0
 10
29.621374
 20
33.301315
 30
0.0
 10
29.284922
 20
32.352017
 30
0.0
 10
29.067793
 20
31.716459
 30
0.0
 10
28.990796
 20
31.484614
 30
0.0
 10
28.950848
 20
31.421974
 30
0.0
 10
28.859176
 20
31.250928
 30
0.0
 10
28.758129
 20
30.996941
 30
0.0
 10
28.690060
 20
30.685457
 30
0.0
 10
28.697262
 20
30.341912
 30
0.0
 10
28.822149
 20
29.991742
 30
0.0
 10
29.107021
 20
29.660392
 30
0.0
 10
29.594225
 20
29.373305
 30
0.0
 10
30.161395
 20
29.135468
 30
0.0
 10
30.678384
 20
28.938034
 30
0.0
 10
31.165208
 20
28.790177
 30
0.0
 10
31.641895
 20
28.701094
 30
0.0
 10
32.128461
 20
28.679964
 30
0.0
 10
32.644920
 20
28.736015
 30
0.0
 10
33.211295
 20
28.878383
 30
0.0
 10
33.847600
 20
29.116275
 30
0.0
 10
34.330952
 20
29.507412
 30
0.0
 10
34.995473
 20
30.257843
 30
0.0
 10
35.780301
 20
31.208975
 30
0.0
 10
36.624578
 20
32.202210
 30
0.0
 10
37.467448
 20
33.078968
 30
0.0
 10
38.248037
 20
33.680644
 30
0.0
 10
38.905506
 20
33.848660
 30
0.0
 10
39.378972
 20
33.424416
 30
0.0
 10
39.477934
 20
32.875223
 30
0.0
 10
39.372151
 20
32.212360
 30
0.0
 10
39.120658
 20
31.493433
 30
0.0
 10
38.782494
 20
30.776048
 30
0.0
 10
38.416705
 20
30.117805
 30
0.0
 10
38.082325
 20
29.576317
 30
0.0
 10
37.838407
 20
29.209176
 30
0.0
 10
37.743977
 20
29.073996
 30
0.0
 10
37.689489
 20
28.985715
 30
0.0
 10
37.553799
 20
28.747062
 30
0.0
 10
37.378494
 20
28.397348
 30
0.0
 10
37.205179
 20
27.975855
 30
0.0
 10
37.075461
 20
27.521894
 30
0.0
 10
37.030961
 20
27.074754
 30
0.0
 10
37.113243
 20
26.673731
 30
0.0
 10
37.363928
 20
26.358137
 30
0.0
 10
37.809763
 20
26.081397
 30
0.0
 10
38.408763
 20
25.792007
 30
0.0
 10
39.099399
 20
25.521850
 30
0.0
 10
39.820181
 20
25.302784
 30
0.0
 10
40.509595
 20
25.166694
 30
0.0
 10
41.106128
 20
25.145429
 30
0.0
 10
41.548289
 20
25.270907
 30
0.0
 10
41.774556
 20
25.574972
 30
0.0
 10
42.134651
 20
26.982267
 30
0.0
 10
42.553834
 20
28.548840
 30
0.0
 10
42.985844
 20
30.196024
 30
0.0
 10
43.384420
 20
31.845165
 30
0.0
 10
43.703296
 20
33.417622
 30
0.0
 10
43.896205
 20
34.834720
 30
0.0
 10
43.916927
 20
36.017820
 30
0.0
 10
43.719093
 20
36.888260
 30
0.0
  0
LWPOLYLINE
  5
10a
100
AcDbEntity
  8
Layer_1
 62
7
100
AcDbPolyline
 90
397
 70
1
 10
26.726369
 20
16.376291
 30
0.0
 10
26.751024
 20
16.371465
 30
0.0
 10
26.772700
 20
16.358422
 30
0.0
 10
26.789175
 20
16.339120
 30
0.0
 10
26.798222
 20
16.315634
 30
0.0
 10
26.864813
 20
15.965975
 30
0.0
 10
26.931404
 20
15.616320
 30
0.0
 10
26.997995
 20
15.266661
 30
0.0
 10
27.064586
 20
14.917002
 30
0.0
 10
27.073596
 20
14.892159
 30
0.0
 10
27.089656
 20
14.868974
 30
0.0
 10
27.110616
 20
14.850087
 30
0.0
 10
27.134215
 20
14.838137
 30
0.0
 10
27.372395
 20
14.742175
 30
0.0
 10
27.610575
 20
14.646209
 30
0.0
 10
27.848756
 20
14.550247
 30
0.0
 10
28.086936
 20
14.454282
 30
0.0
 10
28.112571
 20
14.446591
 30
0.0
 10
28.141259
 20
14.445460
 30
0.0
 10
28.169533
 20
14.450700
 30
0.0
 10
28.193887
 20
14.461897
 30
0.0
 10
28.491035
 20
14.662235
 30
0.0
 10
28.788180
 20
14.862569
 30
0.0
 10
29.085328
 20
15.062908
 30
0.0
 10
29.382476
 20
15.263242
 30
0.0
 10
29.405925
 20
15.273270
 30
0.0
 10
29.431673
 20
15.275155
 30
0.0
 10
29.456705
 20
15.269236
 30
0.0
 10
29.478005
 20
15.255325
 30
0.0
 10
29.728263
 20
15.009353
 30
0.0
 10
29.978522
 20
14.763380
 30
0.0
 10
30.228785
 20
14.517404
 30
0.0
 10
30.479043
 20
14.271432
 30
0.0
 10
30.493293
 20
14.250773
 30
0.0
 10
30.499476
 20
14.226005
 30
0.0
 10
30.497591
 20
14.200521
 30
0.0
 10
30.487186
 20
14.177675
 30
0.0
 10
30.286833
 20
13.890619
 30
0.0
 10
30.086483
 20
13.603559
 30
0.0
 10
29.886130
 20
13.316502
 30
0.0
 10
29.685781
 20
13.029442
 30
0.0
 10
29.674622
 20
13.005579
 30
0.0
 10
29.669683
 20
12.977871
 30
0.0
 10
29.671191
 20
12.949747
 30
0.0
 10
29.679447
 20
12.924640
 30
0.0
 10
29.784872
 20
12.682803
 30
0.0
 10
29.890300
 20
12.440966
 30
0.0
 10
29.995724
 20
12.199126
 30
0.0
 10
30.101152
 20
11.957289
 30
0.0
 10
30.113819
 20
11.933953
 30
0.0
 10
30.133422
 20
11.913332
 30
0.0
 10
30.157323
 20
11.897574
 30
0.0
 10
30.182845
 20
11.888904
 30
0.0
 10
30.526879
 20
11.826033
 30
0.0
 10
30.870917
 20
11.763160
 30
0.0
 10
31.214951
 20
11.700290
 30
0.0
 10
31.558989
 20
11.637416
 30
0.0
 10
31.582551
 20
11.628217
 30
0.0
 10
31.601739
 20
11.611366
 30
0.0
 10
31.614670
 20
11.589350
 30
0.0
 10
31.619420
 20
11.564657
 30
0.0
 10
31.619420
 20
11.216793
 30
0.0
 10
31.619420
 20
10.868933
 30
0.0
 10
31.619420
 20
10.521068
 30
0.0
 10
31.619420
 20
10.173204
 30
0.0
 10
31.614481
 20
10.148436
 30
0.0
 10
31.601136
 20
10.126345
 30
0.0
 10
31.581533
 20
10.109493
 30
0.0
 10
31.557858
 20
10.100408
 30
0.0
 10
31.222453
 20
10.039189
 30
0.0
 10
30.887048
 20
9.977974
 30
0.0
 10
30.551643
 20
9.916755
 30
0.0
 10
30.216238
 20
9.855536
 30
0.0
 10
30.190980
 20
9.846715
 30
0.0
 10
30.167645
 20
9.830806
 30
0.0
 10
30.148758
 20
9.810034
 30
0.0
 10
30.136845
 20
9.786623
 30
0.0
 10
30.032141
 20
9.529209
 30
0.0
 10
29.927437
 20
9.271791
 30
0.0
 10
29.822732
 20
9.014378
 30
0.0
 10
29.718028
 20
8.756960
 30
0.0
 10
29.710300
 20
8.731777
 30
0.0
 10
29.709546
 20
8.703880
 30
0.0
 10
29.715163
 20
8.676436
 30
0.0
 10
29.726850
 20
8.652723
 30
0.0
 10
29.917273
 20
8.379725
 30
0.0
 10
30.107696
 20
8.106730
 30
0.0
 10
30.298124
 20
7.833731
 30
0.0
 10
30.488547
 20
7.560733
 30
0.0
 10
30.498801
 20
7.537699
 30
0.0
 10
30.500686
 20
7.512252
 30
0.0
 10
30.494240
 20
7.487635
 30
0.0
 10
30.480027
 20
7.466976
 30
0.0
 10
30.229625
 20
7.220864
 30
0.0
 10
29.979223
 20
6.974756
 30
0.0
 10
29.728825
 20
6.728644
 30
0.0
 10
29.478423
 20
6.482532
 30
0.0
 10
29.457161
 20
6.468735
 30
0.0
 10
29.432129
 20
6.462627
 30
0.0
 10
29.406381
 20
6.464512
 30
0.0
 10
29.382970
 20
6.474389
 30
0.0
 10
29.110273
 20
6.658457
 30
0.0
 10
28.837576
 20
6.842521
 30
0.0
 10
28.564879
 20
7.026588
 30
0.0
 10
28.292182
 20
7.210652
 30
0.0
 10
28.268244
 20
7.221547
 30
0.0
 10
28.240460
 20
7.225995
 30
0.0
 10
28.212374
 20
7.223733
 30
0.0
 10
28.187493
 20
7.214459
 30
0.0
 10
28.067396
 20
7.151174
 30
0.0
 10
27.947300
 20
7.087890
 30
0.0
 10
27.827203
 20
7.024601
 30
0.0
 10
27.707107
 20
6.961316
 30
0.0
 10
27.683658
 20
6.954908
 30
0.0
 10
27.660926
 20
6.958301
 30
0.0
 10
27.641436
 20
6.970176
 30
0.0
 10
27.627676
 20
6.989590
 30
0.0
 10
27.547279
 20
7.185518
 30
0.0
 10
27.466880
 20
7.381445
 30
0.0
 10
27.386483
 20
7.577369
 30
0.0
 10
27.306087
 20
7.773296
 30
0.0
 10
27.488673
 20
7.887727
 30
0.0
 10
27.662871
 20
8.016570
 30
0.0
 10
27.825228
 20
8.158614
 30
0.0
 10
27.972290
 20
8.312666
 30
0.0
 10
28.045652
 20
8.404606
 30
0.0
 10
28.130990
 20
8.522142
 30
0.0
 10
28.213490
 20
8.644139
 30
0.0
 10
28.278347
 20
8.749462
 30
0.0
 10
28.520206
 20
9.282732
 30
0.0
 10
28.660830
 20
9.852517
 30
0.0
 10
28.700104
 20
10.457719
 30
0.0
 10
28.637917
 20
11.097247
 30
0.0
 10
28.592535
 20
11.299617
 30
0.0
 10
28.525405
 20
11.520493
 30
0.0
 10
28.444345
 20
11.736835
 30
0.0
 10
28.357178
 20
11.925607
 30
0.0
 10
28.087282
 20
12.323886
 30
0.0
 10
27.744262
 20
12.627624
 30
0.0
 10
27.328280
 20
12.836666
 30
0.0
 10
26.839506
 20
12.950867
 30
0.0
 10
26.752139
 20
12.960819
 30
0.0
 10
26.666334
 20
12.968058
 30
0.0
 10
26.580241
 20
12.972657
 30
0.0
 10
26.492019
 20
12.974542
 30
0.0
 10
26.399774
 20
12.973788
 30
0.0
 10
26.301565
 20
12.970772
 30
0.0
 10
26.195459
 20
12.965268
 30
0.0
 10
26.079520
 20
12.956899
 30
0.0
 10
25.827015
 20
12.922329
 30
0.0
 10
25.496375
 20
12.862011
 30
0.0
 10
25.210069
 20
12.800193
 30
0.0
 10
25.090564
 20
12.761130
 30
0.0
 10
25.103871
 20
12.740999
 30
0.0
 10
25.137122
 20
12.697193
 30
0.0
 10
25.185350
 20
12.636128
 30
0.0
 10
25.243568
 20
12.564222
 30
0.0
 10
25.280814
 20
12.518588
 30
0.0
 10
25.318060
 20
12.472950
 30
0.0
 10
25.355306
 20
12.427316
 30
0.0
 10
25.392553
 20
12.381678
 30
0.0
 10
25.447924
 20
12.392874
 30
0.0
 10
25.503300
 20
12.404033
 30
0.0
 10
25.558672
 20
12.415229
 30
0.0
 10
25.614047
 20
12.426388
 30
0.0
 10
26.056912
 20
12.493842
 30
0.0
 10
26.474274
 20
12.514351
 30
0.0
 10
26.846405
 20
12.487961
 30
0.0
 10
27.153581
 20
12.414754
 30
0.0
 10
27.183929
 20
12.401635
 30
0.0
 10
27.223026
 20
12.381617
 30
0.0
 10
27.265799
 20
12.357490
 30
0.0
 10
27.307188
 20
12.332006
 30
0.0
 10
27.355966
 20
12.298906
 30
0.0
 10
27.389971
 20
12.271085
 30
0.0
 10
27.414663
 20
12.243263
 30
0.0
 10
27.435510
 20
12.210164
 30
0.0
 10
27.472380
 20
12.101445
 30
0.0
 10
27.463181
 20
11.989698
 30
0.0
 10
27.407353
 20
11.872780
 30
0.0
 10
27.304327
 20
11.748551
 30
0.0
 10
27.211000
 20
11.663530
 30
0.0
 10
27.099442
 20
11.580193
 30
0.0
 10
26.965487
 20
11.495691
 30
0.0
 10
26.804967
 20
11.407171
 30
0.0
 10
26.726448
 20
11.370189
 30
0.0
 10
26.615655
 20
11.321938
 30
0.0
 10
26.511204
 20
11.278796
 30
0.0
 10
26.451726
 20
11.257157
 30
0.0
 10
26.461227
 20
11.199550
 30
0.0
 10
26.493647
 20
11.043293
 30
0.0
 10
26.543956
 20
10.812385
 30
0.0
 10
26.607068
 20
10.530817
 30
0.0
 10
26.669926
 20
10.250629
 30
0.0
 10
26.719425
 20
10.023371
 30
0.0
 10
26.750564
 20
9.872391
 30
0.0
 10
26.758367
 20
9.821023
 30
0.0
 10
26.723986
 20
9.877175
 30
0.0
 10
26.639914
 20
10.018911
 30
0.0
 10
26.518845
 20
10.224810
 30
0.0
 10
26.373487
 20
10.473459
 30
0.0
 10
26.280571
 20
10.632845
 30
0.0
 10
26.187659
 20
10.792231
 30
0.0
 10
26.094743
 20
10.951613
 30
0.0
 10
26.001831
 20
11.110999
 30
0.0
 10
25.992331
 20
11.109114
 30
0.0
 10
25.982831
 20
11.106853
 30
0.0
 10
25.973331
 20
11.104968
 30
0.0
 10
25.963831
 20
11.102706
 30
0.0
 10
25.954519
 20
11.100444
 30
0.0
 10
25.945170
 20
11.098559
 30
0.0
 10
25.935820
 20
11.096297
 30
0.0
 10
25.926509
 20
11.094412
 30
0.0
 10
25.944642
 20
11.013480
 30
0.0
 10
25.962775
 20
10.932545
 30
0.0
 10
25.980908
 20
10.851614
 30
0.0
 10
25.999041
 20
10.770679
 30
0.0
 10
26.039077
 20
10.590750
 30
0.0
 10
26.057926
 20
10.496538
 30
0.0
 10
26.059434
 20
10.464117
 30
0.0
 10
26.046994
 20
10.469545
 30
0.0
 10
25.985843
 20
10.530150
 30
0.0
 10
25.868992
 20
10.649093
 30
0.0
 10
25.731547
 20
10.790489
 30
0.0
 10
25.608600
 20
10.918472
 30
0.0
 10
25.585868
 20
10.942449
 30
0.0
 10
25.563135
 20
10.966425
 30
0.0
 10
25.540403
 20
10.990401
 30
0.0
 10
25.517671
 20
11.014378
 30
0.0
 10
25.485438
 20
11.010985
 30
0.0
 10
25.453206
 20
11.007592
 30
0.0
 10
25.420974
 20
11.004199
 30
0.0
 10
25.388741
 20
11.000806
 30
0.0
 10
24.808028
 20
10.976981
 30
0.0
 10
24.347425
 20
11.036254
 30
0.0
 10
24.036694
 20
11.171136
 30
0.0
 10
23.905593
 20
11.374166
 30
0.0
 10
23.907101
 20
11.456888
 30
0.0
 10
23.933000
 20
11.543237
 30
0.0
 10
23.982533
 20
11.631912
 30
0.0
 10
24.055095
 20
11.721612
 30
0.0
 10
24.076470
 20
11.745324
 30
0.0
 10
24.093623
 20
11.765908
 30
0.0
 10
24.104857
 20
11.781176
 30
0.0
 10
24.108627
 20
11.788904
 30
0.0
 10
24.065850
 20
11.845633
 30
0.0
 10
23.972437
 20
11.963664
 30
0.0
 10
23.877365
 20
12.081728
 30
0.0
 10
23.829612
 20
12.138567
 30
0.0
 10
23.805108
 20
12.121941
 30
0.0
 10
23.753144
 20
12.074430
 30
0.0
 10
23.690229
 20
12.011827
 30
0.0
 10
23.632866
 20
11.949934
 30
0.0
 10
23.410652
 20
11.630713
 30
0.0
 10
23.265267
 20
11.271226
 30
0.0
 10
23.197108
 20
10.873034
 30
0.0
 10
23.206570
 20
10.437698
 30
0.0
 10
23.234580
 20
10.252043
 30
0.0
 10
23.279705
 20
10.033621
 30
0.0
 10
23.333848
 20
9.817596
 30
0.0
 10
23.388930
 20
9.639112
 30
0.0
 10
23.633534
 20
9.095841
 30
0.0
 10
23.951495
 20
8.614919
 30
0.0
 10
24.334084
 20
8.204610
 30
0.0
 10
24.772557
 20
7.873175
 30
0.0
 10
24.681801
 20
7.652295
 30
0.0
 10
24.591045
 20
7.431415
 30
0.0
 10
24.500290
 20
7.210531
 30
0.0
 10
24.409534
 20
6.989651
 30
0.0
 10
24.395774
 20
6.970010
 30
0.0
 10
24.376284
 20
6.958172
 30
0.0
 10
24.353551
 20
6.955157
 30
0.0
 10
24.330103
 20
6.961603
 30
0.0
 10
24.210006
 20
7.024892
 30
0.0
 10
24.089910
 20
7.088176
 30
0.0
 10
23.969813
 20
7.151465
 30
0.0
 10
23.849717
 20
7.214749
 30
0.0
 10
23.824835
 20
7.223910
 30
0.0
 10
23.796712
 20
7.226172
 30
0.0
 10
23.768928
 20
7.221611
 30
0.0
 10
23.744990
 20
7.210452
 30
0.0
 10
23.472293
 20
7.026388
 30
0.0
 10
23.199596
 20
6.842321
 30
0.0
 10
22.926903
 20
6.658257
 30
0.0
 10
22.654206
 20
6.474190
 30
0.0
 10
22.630531
 20
6.464388
 30
0.0
 10
22.604443
 20
6.462880
 30
0.0
 10
22.579223
 20
6.469213
 30
0.0
 10
22.558112
 20
6.483162
 30
0.0
 10
22.307853
 20
6.729274
 30
0.0
 10
22.057594
 20
6.975382
 30
0.0
 10
21.807339
 20
7.221494
 30
0.0
 10
21.557081
 20
7.467602
 30
0.0
 10
21.542830
 20
7.488261
 30
0.0
 10
21.536195
 20
7.512878
 30
0.0
 10
21.537703
 20
7.538325
 30
0.0
 10
21.547844
 20
7.561358
 30
0.0
 10
21.738415
 20
7.834357
 30
0.0
 10
21.928982
 20
8.107352
 30
0.0
 10
22.119552
 20
8.380350
 30
0.0
 10
22.310122
 20
8.653345
 30
0.0
 10
22.321696
 20
8.676869
 30
0.0
 10
22.327087
 20
8.704314
 30
0.0
 10
22.325956
 20
8.732361
 30
0.0
 10
22.318115
 20
8.757620
 30
0.0
 10
22.213550
 20
9.015033
 30
0.0
 10
22.108989
 20
9.272451
 30
0.0
 10
22.004424
 20
9.529865
 30
0.0
 10
21.899863
 20
9.787279
 30
0.0
 10
21.887724
 20
9.810728
 30
0.0
 10
21.868875
 20
9.831537
 30
0.0
 10
21.845690
 20
9.847446
 30
0.0
 10
21.820470
 20
9.856192
 30
0.0
 10
21.485065
 20
9.917407
 30
0.0
 10
21.149660
 20
9.978626
 30
0.0
 10
20.814255
 20
10.039841
 30
0.0
 10
20.478850
 20
10.101056
 30
0.0
 10
20.455288
 20
10.110255
 30
0.0
 10
20.436100
 20
10.127068
 30
0.0
 10
20.423169
 20
10.149084
 30
0.0
 10
20.418419
 20
10.173852
 30
0.0
 10
20.418042
 20
10.521717
 30
0.0
 10
20.417665
 20
10.869581
 30
0.0
 10
20.417288
 20
11.217445
 30
0.0
 10
20.416911
 20
11.565310
 30
0.0
 10
20.421586
 20
11.589965
 30
0.0
 10
20.434743
 20
11.611905
 30
0.0
 10
20.454233
 20
11.628719
 30
0.0
 10
20.477870
 20
11.638068
 30
0.0
 10
20.821761
 20
11.700942
 30
0.0
 10
21.165652
 20
11.763812
 30
0.0
 10
21.509543
 20
11.826686
 30
0.0
 10
21.853433
 20
11.889556
 30
0.0
 10
21.879106
 20
11.898302
 30
0.0
 10
21.903196
 20
11.914022
 30
0.0
 10
21.922987
 20
11.934606
 30
0.0
 10
21.935730
 20
11.957941
 30
0.0
 10
22.040871
 20
12.199778
 30
0.0
 10
22.146013
 20
12.441611
 30
0.0
 10
22.251154
 20
12.683448
 30
0.0
 10
22.356296
 20
12.925281
 30
0.0
 10
22.364703
 20
12.950388
 30
0.0
 10
22.366587
 20
12.978511
 30
0.0
 10
22.361875
 20
13.006220
 30
0.0
 10
22.350528
 20
13.030083
 30
0.0
 10
22.149888
 20
13.317143
 30
0.0
 10
21.949248
 20
13.604203
 30
0.0
 10
21.748612
 20
13.891264
 30
0.0
 10
21.547973
 20
14.178324
 30
0.0
 10
21.537794
 20
14.201169
 30
0.0
 10
21.536286
 20
14.226653
 30
0.0
 10
21.542921
 20
14.251421
 30
0.0
 10
21.557209
 20
14.272080
 30
0.0
 10
21.807467
 20
14.518053
 30
0.0
 10
22.057726
 20
14.764029
 30
0.0
 10
22.307985
 20
15.010001
 30
0.0
 10
22.558244
 20
15.255974
 30
0.0
 10
22.579393
 20
15.269884
 30
0.0
 10
22.604161
 20
15.275765
 30
0.0
 10
22.629569
 20
15.273504
 30
0.0
 10
22.652603
 20
15.263476
 30
0.0
 10
22.949748
 20
15.063141
 30
0.0
 10
23.246892
 20
14.862807
 30
0.0
 10
23.544041
 20
14.662469
 30
0.0
 10
23.841185
 20
14.462134
 30
0.0
 10
23.865312
 20
14.450938
 30
0.0
 10
23.893624
 20
14.445660
 30
0.0
 10
23.922464
 20
14.446791
 30
0.0
 10
23.948212
 20
14.454519
 30
0.0
 10
24.186678
 20
14.550481
 30
0.0
 10
24.425141
 20
14.646447
 30
0.0
 10
24.663608
 20
14.742409
 30
0.0
 10
24.902074
 20
14.838371
 30
0.0
 10
24.925825
 20
14.850321
 30
0.0
 10
24.946973
 20
14.869208
 30
0.0
 10
24.963222
 20
14.892393
 30
0.0
 10
24.972232
 20
14.917236
 30
0.0
 10
25.038393
 20
15.266895
 30
0.0
 10
25.104554
 20
15.616554
 30
0.0
 10
25.170715
 20
15.966209
 30
0.0
 10
25.236876
 20
16.315867
 30
0.0
 10
25.246188
 20
16.339354
 30
0.0
 10
25.263114
 20
16.358655
 30
0.0
 10
25.285319
 20
16.371699
 30
0.0
 10
25.310464
 20
16.376487
 30
0.0
 10
25.664424
 20
16.376487
 30
0.0
 10
26.018384
 20
16.376487
 30
0.0
 10
26.372344
 20
16.376487
 30
0.0
 10
26.726305
 20
16.376487
 30
0.0
 10
26.726399
 20
16.376487
 30
0.0
 10
26.726493
 20
16.376487
 30
0.0
 10
26.726587
 20
16.376487
 30
0.0
 10
26.726682
 20
16.376487
 30
0.0
 10
26.726648
 20
16.376479
 30
0.0
 10
26.726614
 20
16.376476
 30
0.0
 10
26.726580
 20
16.376468
 30
0.0
 10
26.726369
 20
16.376291
 30
0.0
  0
LWPOLYLINE
  5
10b
100
AcDbEntity
  8
Layer_1
 62
7
100
AcDbPolyline
 90
25
 70
1
 10
22.825195
 20
14.326887
 30
0.0
 10
22.751268
 20
14.267458
 30
0.0
 10
22.677341
 20
14.208034
 30
0.0
 10
22.603414
 20
14.148606
 30
0.0
 10
22.529487
 20
14.089178
 30
0.0
 10
23.132552
 20
13.449288
 30
0.0
 10
23.735622
 20
12.809403
 30
0.0
 10
24.338687
 20
12.169513
 30
0.0
 10
24.941756
 20
11.529624
 30
0.0
 10
24.963885
 20
11.526985
 30
0.0
 10
25.021549
 20
11.520840
 30
0.0
 10
25.101745
 20
11.514771
 30
0.0
 10
25.191453
 20
11.512132
 30
0.0
 10
25.341120
 20
11.543836
 30
0.0
 10
25.434391
 20
11.613209
 30
0.0
 10
25.482279
 20
11.682507
 30
0.0
 10
25.495813
 20
11.713986
 30
0.0
 10
24.828166
 20
12.367250
 30
0.0
 10
24.160519
 20
13.020519
 30
0.0
 10
23.492872
 20
13.673784
 30
0.0
 10
22.825225
 20
14.327049
 30
0.0
 10
22.825225
 20
14.327045
 30
0.0
 10
22.825225
 20
14.327045
 30
0.0
 10
22.825225
 20
14.327041
 30
0.0
 10
22.825195
 20
14.326887
 30
0.0
  0
LWPOLYLINE
  5
10c
100
AcDbEntity
  8
Layer_1
 62
7
100
AcDbPolyline
 90
21
 70
1
 10
24.834179
 20
7.835616
 30
0.0
 10
24.855140
 20
7.822836
 30
0.0
 10
24.875949
 20
7.809830
 30
0.0
 10
24.896872
 20
7.797013
 30
0.0
 10
24.918134
 20
7.784798
 30
0.0
 10
24.907088
 20
7.777145
 30
0.0
 10
24.895025
 20
7.768739
 30
0.0
 10
24.884017
 20
7.761048
 30
0.0
 10
24.876175
 20
7.755582
 30
0.0
 10
24.858985
 20
7.744084
 30
0.0
 10
24.844358
 20
7.735036
 30
0.0
 10
24.833991
 20
7.729381
 30
0.0
 10
24.829580
 20
7.727873
 30
0.0
 10
24.829339
 20
7.738165
 30
0.0
 10
24.830470
 20
7.763159
 30
0.0
 10
24.832354
 20
7.797390
 30
0.0
 10
24.834616
 20
7.835428
 30
0.0
 10
24.834541
 20
7.835439
 30
0.0
 10
24.834469
 20
7.835446
 30
0.0
 10
24.834394
 20
7.835458
 30
0.0
 10
24.834179
 20
7.835616
 30
0.0
  0
ENDSEC
  0
SECTION
  2
OBJECTS
  0
DICTIONARY
  5
C
330
0
100
AcDbDictionary
  3
ACAD_GROUP
350
D
  3
ACAD_MLINESTYLE
350
17
  0
DICTIONARY
  5
D
330
C
100
AcDbDictionary
  0
DICTIONARY
  5
1A
330
C
100
AcDbDictionary
  0
DICTIONARY
  5
17
330
C
100
AcDbDictionary
  3
STANDARD
350
18
  0
DICTIONARY
  5
19
330
C
100
AcDbDictionary
  0
ENDSEC
  0
EOF
