  0
SECTION
  2
HEADER
  9
$ACADVER
  1
AC1014
  9
$HANDSEED
  5
FFFF
  9
$MEASUREMENT
 70
     1
  0
ENDSEC
  0
SECTION
  2
TABLES
  0
TABLE
  2
VPORT
  5
8
330
0
100
AcDbSymbolTable
 70
     4
  0
VPORT
  5
2E
330
8
100
AcDbSymbolTableRecord
100
AcDbViewportTableRecord
  2
*ACTIVE
 70
     0
 10
0.0
 20
0.0
 11
1.0
 21
1.0
 12
210.0
 22
148.5
 13
0.0
 23
0.0
 14
10.0
 24
10.0
 15
10.0
 25
10.0
 16
0.0
 26
0.0
 36
1.0
 17
0.0
 27
0.0
 37
0.0
 40
341.0
 41
1.24
 42
50.0
 43
0.0
 44
0.0
 50
0.0
 51
0.0
 71
     0
 72
   100
 73
     1
 74
     3
 75
     0
 76
     0
 77
     0
 78
     0
  0
ENDTAB
  0
TABLE
  2
LTYPE
  5
5
330
0
100
AcDbSymbolTable
 70
     1
  0
LTYPE
  5
14
330
5
100
AcDbSymbolTableRecord
100
AcDbLinetypeTableRecord
  2
BYBLOCK
 70
     0
  3

 72
    65
 73
     0
 40
0.0
  0
LTYPE
  5
15
330
5
100
AcDbSymbolTableRecord
100
AcDbLinetypeTableRecord
  2
BYLAYER
 70
     0
  3

 72
    65
 73
     0
 40
0.0
  0
LTYPE
  5
16
330
5
100
AcDbSymbolTableRecord
100
AcDbLinetypeTableRecord
  2
CONTINUOUS
 70
     0
  3
Solid line
 72
    65
 73
     0
 40
0.0
  0
ENDTAB
  0
TABLE
  2
LAYER
  5
2
100
AcDbSymbolTable
 70
2
  0
LAYER
  5
50
100
AcDbSymbolTableRecord
100
AcDbLayerTableRecord
  2
0
 70
0
  6
CONTINUOUS
  0
LAYER
  5
51
100
AcDbSymbolTableRecord
100
AcDbLayerTableRecord
  2
Layer_1
 70
0
  6
CONTINUOUS
  0
ENDTAB
  0
TABLE
  2
STYLE
  5
3
330
0
100
AcDbSymbolTable
 70
     1
  0
STYLE
  5
11
330
3
100
AcDbSymbolTableRecord
100
AcDbTextStyleTableRecord
  2
STANDARD
 70
     0
 40
0.0
 41
1.0
 50
0.0
 71
     0
 42
2.5
  3
txt
  4

  0
ENDTAB
  0
TABLE
  2
VIEW
  5
6
330
0
100
AcDbSymbolTable
 70
     0
  0
ENDTAB
  0
TABLE
  2
UCS
  5
7
330
0
100
AcDbSymbolTable
 70
     0
  0
ENDTAB
  0
TABLE
  2
APPID
  5
9
330
0
100
AcDbSymbolTable
 70
     2
  0
APPID
  5
12
330
9
100
AcDbSymbolTableRecord
100
AcDbRegAppTableRecord
  2
ACAD
 70
     0
  0
ENDTAB
  0
TABLE
  2
DIMSTYLE
  5
A
330
0
100
AcDbSymbolTable
 70
     1
  0
DIMSTYLE
105
27
330
A
100
AcDbSymbolTableRecord
100
AcDbDimStyleTableRecord
  2
ISO-25
 70
     0
  3

  4

  5

  6

  7

 40
1.0
 41
2.5
 42
0.625
 43
3.75
 44
1.25
 45
0.0
 46
0.0
 47
0.0
 48
0.0
140
2.5
141
2.5
142
0.0
143
0.03937007874016
144
1.0
145
0.0
146
1.0
147
0.625
 71
     0
 72
     0
 73
     0
 74
     0
 75
     0
 76
     0
 77
     1
 78
     8
170
     0
171
     3
172
     1
173
     0
174
     0
175
     0
176
     0
177
     0
178
     0
270
     2
271
     2
272
     2
273
     2
274
     3
340
11
275
     0
280
     0
281
     0
282
     0
283
     0
284
     8
285
     0
286
     0
287
     3
288
     0
  0
ENDTAB
  0
TABLE
  2
BLOCK_RECORD
  5
1
330
0
100
AcDbSymbolTable
 70
     1
  0
BLOCK_RECORD
  5
1F
330
1
100
AcDbSymbolTableRecord
100
AcDbBlockTableRecord
  2
*MODEL_SPACE
  0
BLOCK_RECORD
  5
1B
330
1
100
AcDbSymbolTableRecord
100
AcDbBlockTableRecord
  2
*PAPER_SPACE
  0
ENDTAB
  0
ENDSEC
  0
SECTION
  2
BLOCKS
  0
BLOCK
  5
20
330
1F
100
AcDbEntity
  8
0
100
AcDbBlockBegin
  2
*MODEL_SPACE
 70
     0
 10
0.0
 20
0.0
 30
0.0
  3
*MODEL_SPACE
  1

  0
ENDBLK
  5
21
330
1F
100
AcDbEntity
  8
0
100
AcDbBlockEnd
  0
BLOCK
  5
1C
330
1B
100
AcDbEntity
 67
     1
  8
0
100
AcDbBlockBegin
  2
*PAPER_SPACE
  1

  0
ENDBLK
  5
1D
330
1B
100
AcDbEntity
 67
     1
  8
0
100
AcDbBlockEnd
  0
ENDSEC
  0
SECTION
  2
ENTITIES
  0
LWPOLYLINE
  5
100
100
AcDbEntity
  8
Layer_1
 62
1
100
AcDbPolyline
 90
169
 70
1
 10
9.238302
 20
6.603995
 30
0.0
 10
8.607541
 20
9.304238
 30
0.0
 10
8.007308
 20
11.944678
 30
0.0
 10
7.447159
 20
14.479872
 30
0.0
 10
6.936655
 20
16.864376
 30
0.0
 10
6.485351
 20
19.052753
 30
0.0
 10
6.102807
 20
20.999556
 30
0.0
 10
5.798580
 20
22.659347
 30
0.0
 10
5.582226
 20
23.986686
 30
0.0
 10
5.483504
 20
24.756334
 30
0.0
 10
5.405329
 20
25.576613
 30
0.0
 10
5.348362
 20
26.424335
 30
0.0
 10
5.313257
 20
27.276308
 30
0.0
 10
5.300670
 20
28.109343
 30
0.0
 10
5.311253
 20
28.900251
 30
0.0
 10
5.345673
 20
29.625836
 30
0.0
 10
5.404578
 20
30.262916
 30
0.0
 10
5.512006
 20
31.017640
 30
0.0
 10
5.658911
 20
31.827601
 30
0.0
 10
5.850952
 20
32.714662
 30
0.0
 10
6.093793
 20
33.700687
 30
0.0
 10
6.393098
 20
34.807540
 30
0.0
 10
6.754532
 20
36.057079
 30
0.0
 10
7.183755
 20
37.471168
 30
0.0
 10
7.686435
 20
39.071672
 30
0.0
 10
8.278464
 20
40.942388
 30
0.0
 10
8.724288
 20
42.425909
 30
0.0
 10
9.047562
 20
43.674093
 30
0.0
 10
9.271945
 20
44.838805
 30
0.0
 10
9.421091
 20
46.071907
 30
0.0
 10
9.518661
 20
47.525258
 30
0.0
 10
9.588311
 20
49.350719
 30
0.0
 10
9.653693
 20
51.700157
 30
0.0
 10
9.687075
 20
52.922391
 30
0.0
 10
9.719654
 20
54.064195
 30
0.0
 10
9.750611
 20
55.100472
 30
0.0
 10
9.779133
 20
56.006115
 30
0.0
 10
9.804392
 20
56.756025
 30
0.0
 10
9.825586
 20
57.325097
 30
0.0
 10
9.841899
 20
57.688233
 30
0.0
 10
9.852510
 20
57.820327
 30
0.0
 10
9.899314
 20
57.809631
 30
0.0
 10
10.019324
 20
57.763544
 30
0.0
 10
10.204456
 20
57.685653
 30
0.0
 10
10.446622
 20
57.579552
 30
0.0
 10
10.737737
 20
57.448826
 30
0.0
 10
11.069718
 20
57.297067
 30
0.0
 10
11.434479
 20
57.127869
 30
0.0
 10
11.823929
 20
56.944820
 30
0.0
 10
13.220079
 20
56.301878
 30
0.0
 10
14.509406
 20
55.746327
 30
0.0
 10
15.712437
 20
55.271397
 30
0.0
 10
16.849697
 20
54.870317
 30
0.0
 10
17.941719
 20
54.536319
 30
0.0
 10
19.009024
 20
54.262636
 30
0.0
 10
20.072147
 20
54.042497
 30
0.0
 10
21.151613
 20
53.869134
 30
0.0
 10
22.360475
 20
53.751622
 30
0.0
 10
23.878320
 20
53.680590
 30
0.0
 10
25.593661
 20
53.653835
 30
0.0
 10
27.395015
 20
53.669160
 30
0.0
 10
29.170892
 20
53.724374
 30
0.0
 10
30.809813
 20
53.817270
 30
0.0
 10
32.200291
 20
53.945656
 30
0.0
 10
33.230840
 20
54.107329
 30
0.0
 10
34.228111
 20
54.339793
 30
0.0
 10
35.195840
 20
54.598800
 30
0.0
 10
36.170184
 20
54.897515
 30
0.0
 10
37.187313
 20
55.249105
 30
0.0
 10
38.283385
 20
55.666726
 30
0.0
 10
39.494570
 20
56.163550
 30
0.0
 10
40.857026
 20
56.752734
 30
0.0
 10
42.406917
 20
57.447446
 30
0.0
 10
42.518976
 20
57.498334
 30
0.0
 10
42.631033
 20
57.549221
 30
0.0
 10
42.743092
 20
57.600109
 30
0.0
 10
42.855151
 20
57.650996
 30
0.0
 10
42.967207
 20
57.701884
 30
0.0
 10
43.079266
 20
57.752771
 30
0.0
 10
43.191323
 20
57.803659
 30
0.0
 10
43.303382
 20
57.854546
 30
0.0
 10
43.304793
 20
57.323734
 30
0.0
 10
43.306204
 20
56.792919
 30
0.0
 10
43.307615
 20
56.262107
 30
0.0
 10
43.309026
 20
55.731293
 30
0.0
 10
43.310437
 20
55.200481
 30
0.0
 10
43.311849
 20
54.669666
 30
0.0
 10
43.313260
 20
54.138851
 30
0.0
 10
43.314671
 20
53.608039
 30
0.0
 10
43.319469
 20
52.708865
 30
0.0
 10
43.329036
 20
51.780819
 30
0.0
 10
43.342808
 20
50.850595
 30
0.0
 10
43.360193
 20
49.944876
 30
0.0
 10
43.380626
 20
49.090358
 30
0.0
 10
43.403543
 20
48.313725
 30
0.0
 10
43.428378
 20
47.641669
 30
0.0
 10
43.454540
 20
47.100878
 30
0.0
 10
43.470683
 20
46.818297
 30
0.0
 10
43.486826
 20
46.535714
 30
0.0
 10
43.502969
 20
46.253133
 30
0.0
 10
43.519113
 20
45.970552
 30
0.0
 10
43.535256
 20
45.687969
 30
0.0
 10
43.551399
 20
45.405388
 30
0.0
 10
43.567542
 20
45.122805
 30
0.0
 10
43.583685
 20
44.840224
 30
0.0
 10
43.759594
 20
44.284805
 30
0.0
 10
43.935503
 20
43.729386
 30
0.0
 10
44.111412
 20
43.173967
 30
0.0
 10
44.287324
 20
42.618548
 30
0.0
 10
44.463233
 20
42.063126
 30
0.0
 10
44.639143
 20
41.507707
 30
0.0
 10
44.815052
 20
40.952288
 30
0.0
 10
44.990961
 20
40.396869
 30
0.0
 10
45.832017
 20
37.722588
 30
0.0
 10
46.476229
 20
35.603858
 30
0.0
 10
46.949665
 20
33.915591
 30
0.0
 10
47.278400
 20
32.532696
 30
0.0
 10
47.488498
 20
31.330085
 30
0.0
 10
47.606032
 20
30.182672
 30
0.0
 10
47.657066
 20
28.965365
 30
0.0
 10
47.667678
 20
27.553077
 30
0.0
 10
47.639597
 20
25.932264
 30
0.0
 10
47.551831
 20
24.244758
 30
0.0
 10
47.396290
 20
22.427171
 30
0.0
 10
47.164871
 20
20.416112
 30
0.0
 10
46.849470
 20
18.148194
 30
0.0
 10
46.441995
 20
15.560030
 30
0.0
 10
45.934336
 20
12.588230
 30
0.0
 10
45.318401
 20
9.169410
 30
0.0
 10
45.164288
 20
8.328780
 30
0.0
 10
45.020515
 20
7.541747
 30
0.0
 10
44.890230
 20
6.825737
 30
0.0
 10
44.776573
 20
6.198177
 30
0.0
 10
44.682698
 20
5.676492
 30
0.0
 10
44.611750
 20
5.278107
 30
0.0
 10
44.566871
 20
5.020447
 30
0.0
 10
44.551208
 20
4.920938
 30
0.0
 10
44.195080
 20
4.906686
 30
0.0
 10
43.174409
 20
4.893393
 30
0.0
 10
41.560758
 20
4.881342
 30
0.0
 10
39.425697
 20
4.870843
 30
0.0
 10
36.840789
 20
4.862151
 30
0.0
 10
33.877606
 20
4.855603
 30
0.0
 10
30.607706
 20
4.851455
 30
0.0
 10
27.102661
 20
4.850044
 30
0.0
 10
24.921594
 20
4.850044
 30
0.0
 10
22.740524
 20
4.850044
 30
0.0
 10
20.559457
 20
4.850044
 30
0.0
 10
18.378390
 20
4.850044
 30
0.0
 10
16.197320
 20
4.850044
 30
0.0
 10
14.016253
 20
4.850044
 30
0.0
 10
11.835184
 20
4.850044
 30
0.0
 10
9.654117
 20
4.850044
 30
0.0
 10
9.602205
 20
5.069288
 30
0.0
 10
9.550293
 20
5.288532
 30
0.0
 10
9.498381
 20
5.507777
 30
0.0
 10
9.446472
 20
5.727024
 30
0.0
 10
9.394560
 20
5.946268
 30
0.0
 10
9.342648
 20
6.165512
 30
0.0
 10
9.290736
 20
6.384757
 30
0.0
 10
9.238824
 20
6.604001
 30
0.0
 10
9.238824
 20
6.604001
 30
0.0
 10
9.238827
 20
6.604001
 30
0.0
 10
9.238827
 20
6.604001
 30
0.0
 10
9.238827
 20
6.604001
 30
0.0
 10
9.238827
 20
6.604001
 30
0.0
 10
9.238829
 20
6.604001
 30
0.0
 10
9.238829
 20
6.604001
 30
0.0
 10
9.238302
 20
6.603995
 30
0.0
  0
ENDSEC
  0
SECTION
  2
OBJECTS
  0
DICTIONARY
  5
C
330
0
100
AcDbDictionary
  3
ACAD_GROUP
350
D
  3
ACAD_MLINESTYLE
350
17
  0
DICTIONARY
  5
D
330
C
100
AcDbDictionary
  0
DICTIONARY
  5
1A
330
C
100
AcDbDictionary
  0
DICTIONARY
  5
17
330
C
100
AcDbDictionary
  3
STANDARD
350
18
  0
DICTIONARY
  5
19
330
C
100
AcDbDictionary
  0
ENDSEC
  0
EOF
