<?xml version="1.0" encoding="UTF-8" standalone="no"?>
<!-- Created with Inkscape (http://www.inkscape.org/) -->

<svg
   xmlns:dc="http://purl.org/dc/elements/1.1/"
   xmlns:cc="http://creativecommons.org/ns#"
   xmlns:rdf="http://www.w3.org/1999/02/22-rdf-syntax-ns#"
   xmlns:svg="http://www.w3.org/2000/svg"
   xmlns="http://www.w3.org/2000/svg"
   xmlns:sodipodi="http://sodipodi.sourceforge.net/DTD/sodipodi-0.dtd"
   xmlns:inkscape="http://www.inkscape.org/namespaces/inkscape"
   width="52.969658mm"
   height="65.013573mm"
   viewBox="0 0 187.68776 230.36305"
   id="svg4910"
   version="1.1"
   inkscape:version="0.91 r13725"
   sodipodi:docname="NeoCoco_frame.svg">
  <defs
     id="defs4912" />
  <sodipodi:namedview
     id="base"
     pagecolor="#ffffff"
     bordercolor="#666666"
     borderopacity="1.0"
     inkscape:pageopacity="0.0"
     inkscape:pageshadow="2"
     inkscape:zoom="0.98994949"
     inkscape:cx="-3.2791858"
     inkscape:cy="98.795337"
     inkscape:document-units="px"
     inkscape:current-layer="layer1"
     showgrid="false"
     fit-margin-top="0"
     fit-margin-left="0"
     fit-margin-right="0"
     fit-margin-bottom="0"
     inkscape:window-width="1321"
     inkscape:window-height="744"
     inkscape:window-x="45"
     inkscape:window-y="24"
     inkscape:window-maximized="1" />
  <metadata
     id="metadata4915">
    <rdf:RDF>
      <cc:Work
         rdf:about="">
        <dc:format>image/svg+xml</dc:format>
        <dc:type
           rdf:resource="http://purl.org/dc/dcmitype/StillImage" />
        <dc:title></dc:title>
      </cc:Work>
    </rdf:RDF>
  </metadata>
  <g
     inkscape:label="Layer 1"
     inkscape:groupmode="layer"
     id="layer1"
     transform="translate(-166.15612,-634.32353)">
    <path
       style="color:#000000;clip-rule:nonzero;display:inline;overflow:visible;visibility:visible;opacity:1;isolation:auto;mix-blend-mode:normal;color-interpolation:sRGB;color-interpolation-filters:linearRGB;solid-color:#000000;solid-opacity:1;fill:none;fill-opacity:1;fill-rule:nonzero;stroke:#ff0000;stroke-width:0.19555922;stroke-linecap:butt;stroke-linejoin:miter;stroke-miterlimit:4;stroke-dasharray:none;stroke-dashoffset:0;stroke-opacity:1;color-rendering:auto;image-rendering:auto;shape-rendering:auto;text-rendering:auto;enable-background:accumulate"
       d="m 338.32302,863.8177 0.29967,-0.72381 0.43686,-1.57 0.55781,-2.3297 0.66249,-3.00291 0.75094,-3.58965 0.82313,-4.08989 0.87906,-4.50365 0.91874,-4.83092 0.94217,-5.07171 0.94934,-5.22602 0.94028,-5.29383 0.91494,-5.27516 0.87337,-5.17001 0.81553,-4.97837 0.74145,-4.70025 0.65111,-4.33563 0.92693,-6.56852 0.77966,-6.02816 0.62767,-5.55502 0.47093,-5.14907 0.30945,-4.81035 0.14322,-4.53885 -0.0278,-4.33454 -0.20346,-4.19747 -0.38391,-4.12759 -0.5691,-4.12493 -0.75904,-4.18949 -0.95372,-4.32126 -1.15314,-4.52024 -1.3573,-4.78643 -1.5662,-5.11984 -1.77985,-5.52046 -0.39629,-1.20899 -0.40038,-1.22852 -0.40175,-1.23939 -0.40039,-1.24165 -0.39633,-1.23525 -0.38952,-1.22022 -0.38001,-1.19654 -0.36778,-1.16425 -0.35281,-1.12329 -0.33514,-1.07371 -0.31473,-1.01549 -0.29161,-0.94862 -0.26577,-0.87312 -0.23721,-0.78899 -0.20592,-0.69621 -0.17191,-0.59479 -0.0933,-0.328 -0.0933,-0.32801 -0.0933,-0.328 -0.0933,-0.328 -0.0933,-0.32801 -0.0933,-0.328 -0.0933,-0.32801 -0.0933,-0.328 -0.0933,-0.328 -0.0933,-0.32801 -0.0933,-0.328 -0.0933,-0.32801 -0.0933,-0.328 -0.0933,-0.328 -0.0933,-0.32801 -0.0933,-0.328 -0.0227,-1.67454 -0.0227,-1.67455 -0.0227,-1.67455 -0.0227,-1.67454 -0.0227,-1.67454 -0.0227,-1.67455 -0.0227,-1.67454 -0.0227,-1.67455 -0.0227,-1.67455 -0.0227,-1.67454 -0.0227,-1.67454 -0.0227,-1.67455 -0.0227,-1.67455 -0.0228,-1.67454 -0.0227,-1.67455 -0.0227,-1.67454 -0.0753,-5.33909 -0.0754,-4.71443 -0.0808,-4.13392 -0.0912,-3.59752 -0.1068,-3.10529 -0.12757,-2.65718 -0.15348,-2.25321 -0.18454,-1.89339 -0.22077,-1.57769 -0.26214,-1.30615 -0.30868,-1.07874 -0.36036,-0.89546 -0.41719,-0.75633 -0.47919,-0.66134 -0.54634,-0.61048 -0.61863,-0.60376 -0.43122,-0.38052 -0.45221,-0.35433 -0.47031,-0.32726 -0.48552,-0.29927 -0.49785,-0.27038 -0.50727,-0.24059 -0.51382,-0.20989 -0.51748,-0.17829 -0.51824,-0.14578 -0.51612,-0.11237 -0.51111,-0.0781 -0.50321,-0.0428 -0.49242,-0.007 -0.47874,0.0303 -0.46218,0.0682 -0.44272,0.10706 -0.22304,0.0774 -0.32926,0.13181 -0.42897,0.18307 -0.52219,0.23125 -0.60891,0.27633 -0.68914,0.31833 -0.76286,0.35723 -0.83008,0.39303 -0.89081,0.42576 -0.94503,0.45538 -0.99277,0.48191 -1.03399,0.50535 -1.06873,0.5257 -1.09696,0.54296 -1.11869,0.55712 -1.13393,0.5682 -4.27365,2.12047 -3.9838,1.91407 -3.72915,1.71729 -3.50971,1.53009 -3.32546,1.35249 -3.17642,1.1845 -3.06257,1.02609 -2.98394,0.8773 -2.9405,0.73809 -2.93225,0.60849 -2.95922,0.48847 -3.02138,0.37807 -3.11875,0.27726 -3.25131,0.18605 -3.41907,0.10443 -3.62205,0.0324 -3.59857,-0.0312 -3.38492,-0.0993 -3.20777,-0.1773 -3.06708,-0.26524 -2.96289,-0.36309 -2.89518,-0.47083 -2.86395,-0.58849 -2.86921,-0.71606 -2.91095,-0.85352 -2.98916,-1.0009 -3.10387,-1.15819 -3.25506,-1.32538 -3.44273,-1.50247 -3.66688,-1.68948 -3.92752,-1.88639 -4.22464,-2.09321 -1.26208,-0.63134 -1.24067,-0.61714 -1.21225,-0.5996 -1.1768,-0.57872 -1.13434,-0.5545 -1.08485,-0.52691 -1.02835,-0.496 -0.96482,-0.46174 -0.89427,-0.42412 -0.8167,-0.38317 -0.73211,-0.33887 -0.64051,-0.29122 -0.54187,-0.24023 -0.43623,-0.1859 -0.32356,-0.12821 -0.20386,-0.0672 -0.37709,-0.0726 -0.40909,-0.0383 -0.43657,-0.005 -0.45955,0.0264 -0.47801,0.0567 -0.49195,0.0857 -0.50137,0.11326 -0.50628,0.13949 -0.50668,0.16438 -0.50255,0.1879 -0.49392,0.21008 -0.48077,0.2309 -0.4631,0.25036 -0.44091,0.26847 -0.41422,0.28523 -0.383,0.30063 -0.67152,0.64394 -0.60489,0.76105 -0.54114,0.90367 -0.48026,1.0718 -0.42227,1.26544 -0.36715,1.48458 -0.31492,1.72924 -0.26555,1.99941 -0.21907,2.29508 -0.17547,2.61627 -0.13475,2.96296 -0.0969,3.33516 -0.0619,3.73289 -0.0298,4.1561 -6.4e-4,4.60484 0.0257,5.07908 0.0338,4.38176 0.0272,3.81185 0.009,3.31726 -0.0194,2.89799 -0.0593,2.55401 -0.11029,2.28537 -0.1724,2.09203 -0.24562,1.974 -0.32994,1.9313 -0.42534,1.9639 -0.53186,2.07182 -0.64947,2.25505 -0.77817,2.5136 -0.91799,2.84746 -1.0689,3.25664 -1.23091,3.74112 -1.75838,5.43802 -1.56041,5.01677 -1.36839,4.64487 -1.18229,4.32236 -1.00212,4.04919 -0.82788,3.8254 -0.65957,3.65096 -0.49719,3.5259 -0.34073,3.4502 -0.19021,3.42385 -0.0456,3.44688 0.0931,3.51926 0.22579,3.64102 0.35259,3.81214 0.47347,4.03262 0.58842,4.30246 0.30074,1.97834 0.36065,2.19027 0.41965,2.39792 0.47774,2.60128 0.53495,2.80036 0.59125,2.99515 0.64664,3.18566 0.70114,3.37189 0.75474,3.55382 0.80744,3.73148 0.85923,3.90485 0.91012,4.07394 0.96013,4.23874 1.00921,4.39925 1.05741,4.55549 1.1047,4.70744 0.86134,3.64272 0.78127,3.28399 0.70624,2.94369 0.63626,2.62179 0.57132,2.31832 0.51142,2.03327 0.45656,1.76662 0.40676,1.51839 0.36199,1.28858 0.32227,1.0772 0.28759,0.88421 0.25795,0.70965 0.23337,0.55351 0.21381,0.41577 0.19931,0.29647 0.18985,0.19557 0.26504,0.16185 0.43267,0.14285 0.69287,0.12504 1.04566,0.10841 1.49102,0.0929 2.02897,0.0787 2.65949,0.0656 3.38261,0.0537 4.19828,0.0429 5.10656,0.0334 6.1074,0.025 7.20083,0.0178 8.38683,0.0118 9.66543,0.007 11.03658,0.003 12.50034,8.4e-4 11.3091,-0.001 10.15223,-0.005 9.05521,-0.009 8.01805,-0.0135 7.04075,-0.0187 6.12331,-0.0245 5.26573,-0.0309 4.468,-0.038 3.73013,-0.0456 3.05212,-0.0539 2.43397,-0.0627 1.87568,-0.0722 1.37724,-0.0823 0.93866,-0.093 0.55995,-0.10433 z"
       id="path4878"
       inkscape:connector-curvature="0"
       sodipodi:nodetypes="ccccccccccccccccccccccccccccccccccccccccccccccccccccccccccccccccccccccccccccccccccccccccccccccccccccccccccccccccccccccccccccccccccccccccccccccccccccccccccccccccccccccccccccccccccccccccccccccccccccccccccccccccccccccccccccccccccccccccccccccccccccccccccccccccccccccccccccccccccccccccccccccccccccccccccccccccc" />
  </g>
</svg>
